<?xml version="1.0" encoding="UTF-8" standalone="no"?>
<!DOCTYPE svg PUBLIC "-//W3C//DTD SVG 1.1//EN" "http://www.w3.org/Graphics/SVG/1.1/DTD/svg11.dtd">
<svg xmlns="http://www.w3.org/2000/svg" version="1.1" viewBox="0.00 0.00 256.00 256.00">
<ellipse fill="#fcaf18" cx="0.00" cy="0.00" transform="translate(137.08,46.04) rotate(96.4)" rx="19.20" ry="17.91"/>
<path fill="#c4122e" d="
  M 56.42 27.10
  C 76.23 29.95 95.37 38.18 107.29 54.47
  Q 116.23 66.68 120.06 79.72
  C 122.18 86.94 116.22 92.12 113.06 97.88
  Q 106.06 110.66 99.26 123.75
  Q 98.76 124.70 98.18 123.80
  Q 98.09 123.68 98.12 123.01
  C 99.35 93.86 95.06 65.81 74.56 43.78
  C 69.48 38.31 62.12 33.57 55.81 28.53
  A 0.81 0.80 68.3 0 1 56.42 27.10
  Z"
/>
<path fill="#df7e27" d="
  M 57.77 49.16
  Q 57.60 49.39 57.58 49.75
  Q 56.71 63.92 55.86 78.47
  A 0.67 0.66 -63.7 0 1 54.69 78.87
  Q 54.15 78.24 54.15 77.00
  Q 54.20 64.63 54.12 52.25
  Q 54.11 50.63 53.94 49.30
  A 0.64 0.64 0.0 0 0 52.74 49.07
  Q 45.97 61.12 38.98 72.95
  Q 38.49 73.77 38.03 74.16
  A 0.38 0.38 0.0 0 1 37.45 73.69
  L 56.27 39.18
  A 0.68 0.67 -41.6 0 1 57.49 39.25
  L 71.83 75.20
  A 0.45 0.44 10.4 0 1 71.11 75.69
  Q 70.58 75.21 70.10 74.19
  Q 64.21 61.67 58.48 49.23
  A 0.42 0.41 -39.1 0 0 57.77 49.16
  Z"
/>
<path fill="#df7e27" d="
  M 165.73 230.00
  C 158.13 225.82 150.37 221.63 143.13 217.09
  Q 139.78 214.99 136.00 211.19
  C 131.23 206.39 126.03 201.58 122.16 196.50
  Q 109.03 179.23 105.32 158.89
  C 101.55 138.22 108.81 116.29 120.61 98.83
  C 133.01 80.47 149.62 67.52 169.62 57.57
  C 178.29 53.26 187.76 50.40 197.19 48.01
  Q 199.01 47.55 199.60 47.69
  Q 201.86 48.20 199.87 49.38
  C 159.65 73.23 122.73 116.73 134.42 167.36
  Q 138.63 185.61 148.54 201.50
  C 154.42 210.94 163.74 220.62 171.69 229.78
  Q 172.03 230.18 171.52 230.27
  Q 167.53 230.99 165.73 230.00
  Z"
/>
<path fill="#fcaf18" d="
  M 173.63 92.03
  A 0.55 0.55 0.0 0 0 172.63 91.72
  C 167.44 99.32 163.50 107.62 158.59 115.45
  A 0.38 0.38 0.0 0 1 157.91 115.13
  C 158.85 112.05 160.62 109.34 162.05 106.72
  Q 168.70 94.50 175.73 81.70
  A 0.76 0.75 48.3 0 1 177.09 81.78
  L 190.24 114.00
  Q 193.87 122.89 188.53 114.88
  Q 188.33 114.58 187.30 111.33
  C 185.54 105.74 182.16 99.96 179.80 94.51
  Q 179.12 92.95 178.30 92.09
  A 0.60 0.60 0.0 0 0 177.27 92.47
  Q 176.49 106.50 175.98 119.00
  Q 175.91 120.60 175.46 121.45
  A 0.89 0.89 0.0 0 1 173.79 121.03
  L 173.63 92.03
  Z"
/>
<path fill="#df7e27" d="
  M 60.99 98.97
  C 49.49 101.29 36.33 97.26 29.73 87.20
  A 0.36 0.35 73.2 0 1 30.02 86.65
  L 78.98 86.74
  A 0.71 0.71 0.0 0 1 79.52 87.90
  Q 72.21 96.70 60.99 98.97
  Z"
/>
<path fill="#fcaf18" d="
  M 181.73 142.35
  C 169.59 145.15 157.31 140.69 149.21 131.38
  A 0.70 0.70 0.0 0 1 149.74 130.22
  L 199.24 130.25
  A 0.30 0.30 0.0 0 1 199.45 130.77
  C 194.37 135.68 188.58 140.77 181.73 142.35
  Z"
/>
</svg>
