<?xml version="1.0" encoding="UTF-8" standalone="no"?>
<!DOCTYPE svg PUBLIC "-//W3C//DTD SVG 1.1//EN" "http://www.w3.org/Graphics/SVG/1.1/DTD/svg11.dtd">
<svg xmlns="http://www.w3.org/2000/svg" version="1.1" viewBox="0.00 0.00 335.00 173.00">
<g stroke-width="2.00" fill="none" stroke-linecap="butt">
<path stroke="#ffe1af" vector-effect="non-scaling-stroke" d="
  M 325.23 112.30
  Q 293.81 101.85 261.00 99.03
  Q 231.47 96.49 204.75 102.12
  C 175.47 108.28 154.88 115.73 122.12 127.25
  C 113.90 130.14 105.01 132.58 96.42 135.32"
/>
<path stroke="#efbf93" vector-effect="non-scaling-stroke" d="
  M 96.42 135.32
  C 73.02 90.42 102.64 48.54 140.60 26.13
  A 0.41 0.41 0.0 0 0 140.33 25.37
  C 115.42 29.10 90.86 45.47 77.40 66.65
  Q 57.41 98.08 74.92 130.88
  C 76.49 133.82 78.85 136.94 80.78 139.92"
/>
<path stroke="#fed78b" vector-effect="non-scaling-stroke" d="
  M 80.78 139.92
  C 62.46 143.16 42.68 146.20 23.50 143.24
  Q 20.24 142.73 9.66 140.18"
/>
<path stroke="#e28997" vector-effect="non-scaling-stroke" d="
  M 75.18 40.23
  C 66.72 21.67 49.24 11.72 29.40 9.63
  A 0.33 0.33 0.0 0 0 29.16 10.22
  C 34.19 14.19 39.93 17.90 43.96 22.32
  C 59.96 39.91 62.50 60.84 61.83 83.88
  A 0.36 0.36 0.0 0 0 62.51 84.06
  Q 68.30 73.45 74.06 63.01
  C 76.43 58.73 79.98 55.87 78.94 49.96
  Q 78.52 47.54 75.18 40.23"
/>
<path stroke="#fed78b" vector-effect="non-scaling-stroke" d="
  M 90.9887 38.6726
  A 14.56 13.68 92.8 0 0 105.3637 24.7983
  A 14.56 13.68 92.8 0 0 92.4113 9.5874
  A 14.56 13.68 92.8 0 0 78.0363 23.4617
  A 14.56 13.68 92.8 0 0 90.9887 38.6726"
/>
<path stroke="#efbf93" vector-effect="non-scaling-stroke" d="
  M 28.50 25.76
  L 28.76 49.90
  Q 28.76 49.94 28.80 49.94
  Q 28.96 49.97 29.09 49.84
  A 1.00 0.39 -39.1 0 0 29.42 49.26
  L 30.97 26.24
  A 0.43 0.42 -55.2 0 1 31.78 26.09
  Q 36.24 36.15 41.12 46.37
  Q 41.32 46.79 41.61 46.96
  A 0.17 0.17 0.0 0 0 41.86 46.75
  L 30.78 18.87
  Q 30.45 18.05 30.03 18.83
  L 15.27 46.19
  A 0.29 0.29 0.0 0 0 15.78 46.47
  L 27.84 25.59
  Q 28.49 24.46 28.50 25.76"
/>
<path stroke="#fed78b" vector-effect="non-scaling-stroke" d="
  M 135.02 87.78
  L 101.58 87.64
  A 0.96 0.96 0.0 0 0 100.90 89.28
  Q 116.84 105.19 135.36 93.25"
/>
<path stroke="#828283" vector-effect="non-scaling-stroke" d="
  M 135.36 93.25
  L 168.75 93.25
  Q 169.26 93.25 169.26 92.74
  L 169.24 85.74
  Q 169.24 85.23 168.74 85.23
  L 147.90 85.23
  Q 147.30 85.23 147.30 84.64
  L 147.30 68.82
  Q 147.30 68.19 147.93 68.19
  L 164.41 68.17
  Q 165.00 68.17 165.00 67.59
  L 164.99 60.51
  Q 164.99 60.03 164.51 60.03
  L 147.95 60.09
  A 0.64 0.64 0.0 0 1 147.31 59.45
  L 147.28 44.48
  A 0.50 0.49 -90.0 0 1 147.77 43.98
  L 168.76 43.99
  A 0.51 0.50 0.0 0 0 169.27 43.49
  L 169.26 36.26
  Q 169.26 35.75 168.76 35.75
  L 135.52 35.75
  Q 135.02 35.75 135.02 36.25
  L 135.02 87.78"
/>
<path stroke="#815a0f" vector-effect="non-scaling-stroke" d="
  M 135.36 93.25
  L 139.37 88.53
  Q 139.98 87.81 139.04 87.80
  L 135.02 87.78"
/>
<path stroke="#828283" vector-effect="non-scaling-stroke" d="
  M 191.46 54.23
  L 201.14 84.53
  Q 201.32 85.08 201.89 85.07
  L 208.14 84.96
  Q 208.60 84.95 208.74 84.51
  L 218.41 54.17
  A 0.20 0.19 53.8 0 1 218.79 54.23
  L 218.80 92.79
  A 0.50 0.49 -90.0 0 0 219.29 93.29
  L 230.51 93.29
  Q 231.05 93.29 231.05 92.75
  L 231.03 36.40
  Q 231.03 35.76 230.40 35.76
  L 215.04 35.75
  Q 214.52 35.75 214.37 36.25
  L 205.45 65.75
  Q 205.12 66.83 204.79 65.75
  L 195.81 36.37
  Q 195.62 35.76 194.98 35.76
  L 180.01 35.75
  Q 179.52 35.75 179.52 36.24
  L 179.52 92.78
  Q 179.52 93.28 180.03 93.28
  L 190.56 93.26
  Q 191.13 93.26 191.13 92.69
  L 191.07 54.29
  A 0.20 0.20 0.0 0 1 191.46 54.23"
/>
<path stroke="#828283" vector-effect="non-scaling-stroke" d="
  M 254.44 80.75
  A 0.51 0.51 0.0 0 1 254.94 80.34
  L 267.44 80.37
  A 0.51 0.51 0.0 0 1 267.94 80.78
  L 270.37 92.85
  A 0.51 0.51 0.0 0 0 270.87 93.26
  L 282.35 93.32
  A 0.51 0.51 0.0 0 0 282.85 92.69
  L 269.25 36.15
  A 0.51 0.51 0.0 0 0 268.76 35.76
  L 253.92 35.75
  A 0.51 0.51 0.0 0 0 253.43 36.14
  L 239.83 92.68
  A 0.51 0.51 0.0 0 0 240.33 93.31
  L 251.58 93.27
  A 0.51 0.51 0.0 0 0 252.08 92.86
  L 254.44 80.75"
/>
<path stroke="#828283" vector-effect="non-scaling-stroke" d="
  M 301.25 80.07
  C 301.25 87.08 292.82 86.27 287.97 85.45
  A 0.59 0.59 0.0 0 0 287.28 85.98
  L 286.70 92.78
  Q 286.66 93.26 287.13 93.36
  C 295.13 95.03 308.63 94.79 312.36 86.27
  Q 313.49 83.69 313.52 78.06
  Q 313.63 57.18 313.52 36.29
  Q 313.52 35.76 312.99 35.76
  L 301.78 35.75
  Q 301.28 35.75 301.27 36.26
  Q 301.25 58.20 301.25 80.07"
/>
<path stroke="#fed78b" vector-effect="non-scaling-stroke" d="
  M 122.37 59.26
  A 0.59 0.59 0.0 0 1 123.50 59.07
  Q 127.68 68.93 132.32 78.58
  Q 132.93 79.84 132.67 78.47
  Q 131.90 74.41 130.74 71.82
  Q 126.46 62.20 122.35 51.63
  Q 121.85 50.33 121.18 51.55
  L 107.08 77.56
  Q 106.88 77.94 107.29 77.83
  Q 107.90 77.68 108.19 77.17
  Q 113.57 67.80 118.68 58.48
  A 0.56 0.56 0.0 0 1 119.73 58.74
  Q 119.92 69.91 120.12 81.25
  Q 120.13 81.87 120.37 82.20
  Q 120.71 82.69 120.75 82.10
  L 122.37 59.26"
/>
<path stroke="#efbf93" vector-effect="non-scaling-stroke" d="
  M 9.78 55.77
  C 19.23 68.82 37.70 68.25 47.66 56.27
  Q 48.70 55.00 47.06 55.00
  L 10.18 54.98
  A 0.50 0.50 0.0 0 0 9.78 55.77"
/>
<path stroke="#efa143" vector-effect="non-scaling-stroke" d="
  M 96.42 135.32
  L 98.76 139.48"
/>
<path stroke="#efbf93" vector-effect="non-scaling-stroke" d="
  M 98.76 139.48
  L 100.17 141.99"
/>
<path stroke="#ee971f" vector-effect="non-scaling-stroke" d="
  M 100.17 141.99
  Q 100.02 142.70 100.41 143.22
  Q 108.27 153.91 118.54 164.98"
/>
<path stroke="#b56620" stroke-opacity="0.620" vector-effect="non-scaling-stroke" d="
  M 118.54 164.98
  L 115.31 164.97"
/>
<path stroke="#ee971f" vector-effect="non-scaling-stroke" d="
  M 115.31 164.97
  Q 102.59 160.33 92.21 151.58
  C 91.55 151.02 90.94 150.90 90.22 150.39"
/>
<path stroke="#efbf93" vector-effect="non-scaling-stroke" d="
  M 90.22 150.39
  Q 90.13 150.30 90.11 150.07
  Q 90.10 149.77 89.88 149.54
  L 84.20 143.53"
/>
<path stroke="#ee971f" vector-effect="non-scaling-stroke" d="
  M 84.20 143.53
  L 80.78 139.92"
/>
<path stroke="#828283" vector-effect="non-scaling-stroke" d="
  M 256.29 72.04
  A 0.16 0.15 -85.2 0 0 256.44 72.23
  L 265.60 72.23
  A 0.50 0.49 84.6 0 0 266.08 71.64
  L 261.46 48.76
  A 0.25 0.25 0.0 0 0 260.96 48.76
  L 256.29 72.04"
/>
<path stroke="#feb93b" vector-effect="non-scaling-stroke" d="
  M 325.24 130.60
  Q 293.96 117.70 260.99 112.91
  Q 228.29 108.16 196.75 113.56
  Q 185.62 115.46 169.65 119.19
  C 168.00 119.57 167.27 120.39 165.28 120.58
  Q 163.75 120.73 162.41 121.63
  Q 162.32 121.69 162.23 121.64
  L 161.88 121.45
  Q 161.69 121.35 161.49 121.43
  L 150.38 125.80"
/>
<path stroke="#ffe1af" vector-effect="non-scaling-stroke" d="
  M 150.38 125.80
  Q 151.45 124.78 152.17 124.48
  Q 159.62 121.41 167.10 118.40
  Q 186.91 110.43 207.48 104.59
  Q 208.53 104.29 207.45 104.16
  Q 206.48 104.05 205.23 104.35
  Q 182.16 109.85 161.70 117.12
  C 146.05 122.68 130.41 128.24 114.86 134.05
  Q 106.96 137.01 98.76 139.48"
/>
<path stroke="#fed78b" vector-effect="non-scaling-stroke" d="
  M 150.38 125.80
  Q 144.20 127.89 138.22 130.70
  Q 129.76 134.68 126.31 136.05
  Q 110.81 142.22 106.47 144.20
  Q 101.76 146.35 100.17 141.99"
/>
<path stroke="#cd8e13" stroke-opacity="0.620" vector-effect="non-scaling-stroke" d="
  M 324.53 165.00
  L 118.54 164.98"
/>
<path stroke="#815a0f" vector-effect="non-scaling-stroke" d="
  M 300.51 138.05
  L 300.90 137.83
  A 0.34 0.34 0.0 0 0 300.74 137.19
  L 300.06 137.18
  A 0.42 0.42 0.0 0 0 299.63 137.59
  L 299.25 146.46
  A 0.65 0.65 0.0 0 0 300.54 146.60
  Q 301.23 142.67 300.21 138.74
  Q 300.09 138.28 300.51 138.05"
/>
<path stroke="#815a0f" vector-effect="non-scaling-stroke" d="
  M 163.73 138.03
  Q 163.87 137.91 164.03 137.88
  A 0.32 0.31 -39.6 0 0 164.09 137.27
  Q 163.90 137.20 163.68 137.23
  Q 163.46 137.26 163.29 137.41
  Q 163.08 137.59 163.07 137.86
  Q 163.05 138.20 162.80 138.45
  Q 159.78 141.50 161.26 145.76
  A 2.14 2.13 67.9 0 0 164.18 147.00
  Q 166.12 146.10 165.53 143.88
  A 1.74 1.67 -46.2 0 1 165.53 142.99
  Q 166.34 139.90 163.78 138.56
  A 0.32 0.32 0.0 0 1 163.73 138.03"
/>
<path stroke="#815a0f" vector-effect="non-scaling-stroke" d="
  M 135.10 143.53
  L 136.44 143.22
  Q 137.43 142.99 136.57 142.46
  Q 136.03 142.13 135.40 142.25
  A 0.75 0.75 0.0 0 1 134.52 141.48
  L 134.56 140.70
  A 0.56 0.55 85.3 0 1 134.99 140.18
  L 136.84 139.76
  A 0.44 0.44 0.0 0 0 136.74 138.89
  L 133.85 138.90
  Q 133.24 138.90 133.22 139.52
  L 133.07 146.30
  A 0.61 0.60 0.9 0 0 133.67 146.91
  L 136.89 146.96
  A 0.51 0.51 0.0 0 0 136.99 145.95
  L 135.09 145.61
  A 0.62 0.62 0.0 0 1 134.58 144.99
  L 134.59 144.16
  Q 134.60 143.65 135.10 143.53"
/>
<path stroke="#815a0f" vector-effect="non-scaling-stroke" d="
  M 140.02 145.87
  L 138.71 144.92
  A 0.41 0.40 -72.2 0 0 138.07 145.25
  Q 138.06 147.45 141.05 146.82
  A 0.94 0.90 -68.0 0 0 141.45 146.64
  C 144.22 144.58 139.92 142.33 139.23 140.58
  A 0.50 0.50 0.0 0 1 139.97 139.97
  L 141.29 140.81
  A 0.46 0.45 9.9 0 0 141.98 140.33
  Q 141.67 138.94 140.24 138.80
  Q 138.36 138.61 137.97 140.45
  C 137.50 142.67 140.55 143.10 140.93 145.30
  A 0.58 0.58 0.0 0 1 140.02 145.87"
/>
<path stroke="#815a0f" vector-effect="non-scaling-stroke" d="
  M 145.49 140.00
  L 146.49 141.45
  A 0.48 0.48 0.0 0 0 147.36 141.16
  Q 147.28 138.96 144.95 138.82
  A 1.83 1.83 0.0 0 0 143.01 140.63
  L 142.98 145.17
  A 1.72 1.72 0.0 0 0 144.17 146.82
  Q 146.13 147.46 147.07 146.04
  Q 147.74 145.04 147.27 144.45
  A 0.73 0.73 0.0 0 0 146.03 144.63
  L 145.49 145.91
  A 0.52 0.51 56.3 0 1 144.50 145.71
  L 144.46 140.32
  A 0.57 0.56 27.6 0 1 145.49 140.00"
/>
<path stroke="#815a0f" vector-effect="non-scaling-stroke" d="
  M 150.48 144.11
  L 151.18 146.41
  Q 151.30 146.79 151.69 146.88
  L 152.18 147.00
  Q 152.76 147.13 152.59 146.56
  L 151.87 144.11
  Q 151.71 143.57 151.99 143.09
  Q 152.87 141.54 152.29 139.86
  Q 152.08 139.26 151.45 139.18
  L 148.95 138.86
  A 0.58 0.58 0.0 0 0 148.29 139.41
  Q 148.13 142.84 148.27 146.25
  Q 148.30 147.07 149.11 147.00
  Q 149.57 146.96 149.59 146.50
  L 149.66 144.21
  A 0.42 0.42 0.0 0 1 150.48 144.11"
/>
<path stroke="#815a0f" vector-effect="non-scaling-stroke" d="
  M 168.31 144.29
  A 0.42 0.42 0.0 0 1 169.12 144.14
  L 170.03 146.87
  A 0.64 0.64 0.0 0 0 171.25 146.51
  L 170.63 144.02
  Q 170.50 143.51 170.77 143.05
  C 172.41 140.29 170.23 138.30 167.48 138.92
  Q 167.01 139.03 167.01 139.51
  L 167.00 146.32
  Q 167.00 146.90 167.58 146.85
  L 167.87 146.82
  Q 168.38 146.78 168.36 146.27
  L 168.31 144.29"
/>
<path stroke="#815a0f" vector-effect="non-scaling-stroke" d="
  M 174.0038 139.3287
  A 0.44 0.44 0.0 0 0 173.5630 138.8895
  L 172.9630 138.8905
  A 0.44 0.44 0.0 0 0 172.5238 139.3313
  L 172.5362 146.4513
  A 0.44 0.44 0.0 0 0 172.9770 146.8905
  L 173.5770 146.8895
  A 0.44 0.44 0.0 0 0 174.0162 146.4487
  L 174.0038 139.3287"
/>
<path stroke="#815a0f" vector-effect="non-scaling-stroke" d="
  M 179.9602 141.0248
  A 2.21 2.21 0.0 0 0 177.7734 138.7918
  L 177.4735 138.7887
  A 2.21 2.21 0.0 0 0 175.2404 140.9754
  L 175.1998 144.8552
  A 2.21 2.21 0.0 0 0 177.3866 147.0882
  L 177.6865 147.0913
  A 2.21 2.21 0.0 0 0 179.9196 144.9046
  L 179.9602 141.0248"
/>
<path stroke="#815a0f" vector-effect="non-scaling-stroke" d="
  M 185.55 143.72
  L 186.21 145.56
  A 0.48 0.48 0.0 0 0 187.14 145.44
  L 187.31 143.73
  A 0.28 0.28 0.0 0 1 187.83 143.63
  Q 188.36 144.60 188.14 145.79
  Q 187.96 146.80 188.72 146.83
  Q 189.41 146.87 189.41 146.17
  L 189.40 139.73
  A 1.04 1.04 0.0 0 0 187.32 139.65
  L 187.09 142.29
  A 0.34 0.34 0.0 0 1 186.44 142.38
  L 185.30 139.35
  Q 185.16 139.00 184.80 138.93
  L 184.28 138.84
  A 0.64 0.64 0.0 0 0 183.52 139.47
  L 183.50 146.73
  Q 183.50 147.21 183.96 147.11
  Q 184.13 147.08 184.30 147.04
  A 0.64 0.64 0.0 0 0 184.78 146.45
  L 184.92 143.81
  A 0.33 0.32 36.7 0 1 185.55 143.72"
/>
<path stroke="#815a0f" vector-effect="non-scaling-stroke" d="
  M 195.2635 140.9339
  A 2.11 2.11 0.0 0 0 193.1572 138.8203
  L 192.8572 138.8197
  A 2.11 2.11 0.0 0 0 190.7435 140.9261
  L 190.7365 144.9661
  A 2.11 2.11 0.0 0 0 192.8428 147.0797
  L 193.1428 147.0803
  A 2.11 2.11 0.0 0 0 195.2565 144.9739
  L 195.2635 140.9339"
/>
<path stroke="#815a0f" vector-effect="non-scaling-stroke" d="
  M 200.9836 140.2190
  A 1.26 1.26 0.0 0 0 199.7346 138.9481
  L 197.9147 138.9322
  A 1.26 1.26 0.0 0 0 196.6437 140.1812
  L 196.5964 145.6010
  A 1.26 1.26 0.0 0 0 197.8454 146.8719
  L 199.6653 146.8878
  A 1.26 1.26 0.0 0 0 200.9363 145.6388
  L 200.9836 140.2190"
/>
<path stroke="#815a0f" vector-effect="non-scaling-stroke" d="
  M 203.50 144.89
  L 203.63 144.18
  Q 203.74 143.60 204.32 143.50
  L 205.31 143.33
  A 0.47 0.46 -42.6 0 0 205.35 142.42
  L 203.97 142.07
  A 0.58 0.57 -80.2 0 1 203.54 141.45
  L 203.65 140.34
  Q 203.72 139.69 204.33 139.91
  Q 205.40 140.29 206.05 139.55
  A 0.40 0.39 -69.7 0 0 205.75 138.89
  L 202.78 138.95
  Q 202.28 138.96 202.27 139.47
  L 202.14 146.35
  Q 202.13 146.94 202.72 146.92
  L 205.94 146.82
  A 0.52 0.51 45.2 0 0 205.94 145.79
  L 204.15 145.71
  Q 203.36 145.67 203.50 144.89"
/>
<path stroke="#815a0f" vector-effect="non-scaling-stroke" d="
  M 208.77 144.96
  Q 208.72 142.22 208.79 139.50
  Q 208.80 138.73 207.90 138.84
  A 0.65 0.64 -3.5 0 0 207.33 139.48
  L 207.29 146.25
  A 0.68 0.68 0.0 0 0 208.00 146.93
  L 210.96 146.78
  A 0.35 0.35 0.0 0 0 211.04 146.09
  L 209.26 145.60
  A 0.68 0.66 -83.2 0 1 208.77 144.96"
/>
<path stroke="#815a0f" vector-effect="non-scaling-stroke" d="
  M 216.2474 140.7979
  A 1.97 1.97 0.0 0 0 214.2843 138.8210
  L 213.7243 138.8190
  A 1.97 1.97 0.0 0 0 211.7474 140.7822
  L 211.7326 145.0221
  A 1.97 1.97 0.0 0 0 213.6957 146.9990
  L 214.2557 147.0010
  A 1.97 1.97 0.0 0 0 216.2326 145.0378
  L 216.2474 140.7979"
/>
<path stroke="#815a0f" vector-effect="non-scaling-stroke" d="
  M 224.2700 140.3299
  A 1.35 1.35 0.0 0 0 222.9510 138.9496
  L 221.3114 138.9124
  A 1.35 1.35 0.0 0 0 219.9311 140.2315
  L 219.8100 145.5701
  A 1.35 1.35 0.0 0 0 221.1290 146.9504
  L 222.7686 146.9876
  A 1.35 1.35 0.0 0 0 224.1489 145.6685
  L 224.2700 140.3299"
/>
<path stroke="#815a0f" vector-effect="non-scaling-stroke" d="
  M 227.82 140.11
  L 229.77 139.80
  A 0.45 0.45 0.0 0 0 229.68 138.91
  L 226.39 138.99
  Q 225.77 139.00 225.77 139.61
  L 225.72 146.20
  Q 225.72 146.84 226.35 146.89
  Q 227.96 147.01 229.56 146.90
  A 0.59 0.59 0.0 0 0 229.50 145.73
  L 227.67 145.77
  A 0.57 0.57 0.0 0 1 227.08 145.16
  L 227.15 144.11
  Q 227.18 143.63 227.65 143.54
  L 228.91 143.29
  A 0.46 0.45 67.8 0 0 229.20 142.59
  Q 228.69 141.83 227.90 142.25
  A 0.56 0.56 0.0 0 1 227.07 141.74
  L 227.10 140.95
  Q 227.11 140.23 227.82 140.11"
/>
<path stroke="#815a0f" vector-effect="non-scaling-stroke" d="
  M 238.05 146.41
  Q 239.27 147.19 240.88 146.99
  A 1.89 1.89 0.0 0 0 241.98 143.78
  L 239.57 141.37
  A 0.75 0.74 84.4 0 1 240.51 140.22
  L 241.44 140.84
  Q 241.95 141.18 242.07 140.58
  Q 242.23 139.80 241.47 139.25
  Q 240.11 138.26 238.75 139.04
  A 1.95 1.95 0.0 0 0 238.37 142.14
  L 240.98 144.63
  A 0.70 0.70 0.0 0 1 240.21 145.78
  L 238.51 145.01
  Q 238.00 144.79 237.85 145.32
  Q 237.81 145.46 237.79 145.63
  A 0.26 0.25 43.4 0 1 237.29 145.64
  Q 236.76 142.82 236.29 139.99
  Q 236.11 138.90 235.05 138.84
  A 0.82 0.80 7.1 0 0 234.22 139.47
  L 232.74 146.29
  A 0.60 0.60 0.0 0 0 233.67 146.90
  Q 234.37 146.39 234.37 145.45
  Q 234.37 144.79 235.00 144.97
  Q 235.86 145.22 236.02 146.16
  Q 236.11 146.67 236.61 146.78
  Q 237.14 146.91 237.39 146.54
  Q 237.65 146.15 238.05 146.41"
/>
<path stroke="#815a0f" vector-effect="non-scaling-stroke" d="
  M 245.11 140.21
  L 246.09 140.77
  A 0.54 0.54 0.0 0 0 246.83 140.05
  Q 246.15 138.81 244.72 138.77
  Q 243.11 138.74 242.91 140.34
  L 242.81 141.19
  A 1.14 1.13 -65.5 0 0 243.18 142.19
  Q 244.41 143.30 245.60 144.47
  A 0.80 0.79 -0.7 0 1 244.49 145.60
  Q 244.05 145.18 243.62 144.77
  A 0.51 0.50 -53.5 0 0 242.83 144.89
  Q 242.61 145.28 242.68 145.69
  C 242.91 147.14 245.23 147.12 246.28 146.73
  A 1.02 1.02 0.0 0 0 246.93 145.89
  Q 247.23 143.19 244.80 141.92
  A 1.04 1.04 0.0 0 1 244.23 140.96
  L 244.24 140.70
  A 0.58 0.58 0.0 0 1 245.11 140.21"
/>
<path stroke="#815a0f" vector-effect="non-scaling-stroke" d="
  M 257.50 146.21
  C 260.16 148.37 263.10 145.61 261.06 143.45
  Q 259.45 141.74 258.67 141.01
  A 0.55 0.54 77.9 0 1 259.25 140.11
  L 260.62 140.67
  A 0.53 0.53 0.0 0 0 261.29 139.92
  Q 260.41 138.32 258.26 138.91
  A 1.81 1.81 0.0 0 0 257.49 141.97
  L 260.11 144.46
  A 0.82 0.82 0.0 0 1 259.14 145.76
  Q 255.98 143.95 253.92 140.91
  A 0.50 0.50 0.0 0 1 254.53 140.16
  L 256.14 140.84
  A 0.40 0.40 0.0 0 0 256.67 140.32
  C 256.15 139.02 254.38 138.19 253.17 139.34
  Q 252.82 139.67 252.39 139.46
  Q 250.60 138.55 248.62 138.98
  Q 248.02 139.12 248.02 139.73
  L 248.01 146.39
  A 0.63 0.62 -2.5 0 0 248.70 147.02
  L 252.62 146.60
  Q 253.04 146.56 253.44 146.72
  Q 255.13 147.45 256.64 146.21
  Q 257.07 145.85 257.50 146.21"
/>
<path stroke="#815a0f" vector-effect="non-scaling-stroke" d="
  M 266.5188 140.7584
  A 1.97 1.97 0.0 0 0 264.5385 138.7987
  L 264.0185 138.8014
  A 1.97 1.97 0.0 0 0 262.0589 140.7817
  L 262.0812 145.0416
  A 1.97 1.97 0.0 0 0 264.0615 147.0013
  L 264.5815 146.9986
  A 1.97 1.97 0.0 0 0 266.5411 145.0183
  L 266.5188 140.7584"
/>
<path stroke="#815a0f" vector-effect="non-scaling-stroke" d="
  M 270.08 143.96
  L 270.89 146.57
  Q 270.99 146.90 271.34 146.94
  L 271.79 146.99
  Q 272.43 147.06 272.24 146.45
  L 271.47 144.02
  A 0.97 0.96 -37.0 0 1 271.59 143.21
  C 273.23 140.78 271.49 138.03 268.59 138.91
  Q 268.01 139.08 268.00 139.69
  L 267.86 146.32
  A 0.55 0.54 -2.4 0 0 268.46 146.87
  L 268.94 146.83
  Q 269.41 146.79 269.42 146.31
  L 269.45 144.05
  A 0.32 0.32 0.0 0 1 270.08 143.96"
/>
<path stroke="#815a0f" vector-effect="non-scaling-stroke" d="
  M 278.85 145.16
  L 279.54 146.69
  Q 279.66 146.96 279.95 147.00
  L 280.25 147.04
  Q 280.92 147.14 280.79 146.47
  L 279.33 139.22
  A 0.99 0.99 0.0 0 0 277.38 139.23
  L 276.07 146.32
  Q 275.95 146.96 276.60 146.95
  L 277.03 146.94
  A 0.32 0.32 0.0 0 0 277.34 146.70
  L 277.72 145.26
  A 0.60 0.60 0.0 0 1 278.85 145.16"
/>
<path stroke="#815a0f" vector-effect="non-scaling-stroke" d="
  M 285.03 139.84
  Q 285.95 143.52 284.11 146.68
  Q 283.58 147.60 284.58 147.23
  L 285.97 146.72
  A 0.82 0.79 -9.4 0 0 286.50 146.00
  Q 286.60 142.80 286.50 139.61
  Q 286.49 139.15 286.26 138.97
  Q 285.85 138.62 285.22 139.20
  A 0.67 0.65 62.3 0 0 285.03 139.84"
/>
<path stroke="#815a0f" vector-effect="non-scaling-stroke" d="
  M 295.92 143.96
  Q 296.44 145.01 296.59 146.19
  Q 296.65 146.60 296.85 146.78
  Q 297.18 147.07 297.63 146.91
  Q 298.21 146.71 298.00 146.14
  L 297.24 143.99
  Q 297.10 143.57 297.34 143.20
  Q 299.35 140.08 296.13 138.84
  A 1.74 1.74 0.0 0 0 293.76 140.44
  L 293.67 146.25
  A 0.61 0.59 -81.2 0 0 294.09 146.84
  Q 294.65 147.03 295.03 146.29
  A 0.66 0.59 60.2 0 0 295.10 145.96
  Q 295.06 144.98 295.33 144.02
  Q 295.55 143.21 295.92 143.96"
/>
<path stroke="#815a0f" vector-effect="non-scaling-stroke" d="
  M 306.1219 140.2954
  A 1.44 1.44 0.0 0 0 304.6718 138.8655
  L 303.3519 138.8747
  A 1.44 1.44 0.0 0 0 301.9220 140.3247
  L 301.9581 145.5046
  A 1.44 1.44 0.0 0 0 303.4082 146.9345
  L 304.7281 146.9253
  A 1.44 1.44 0.0 0 0 306.1580 145.4753
  L 306.1219 140.2954"
/>
<path stroke="#815a0f" vector-effect="non-scaling-stroke" d="
  M 311.98 145.60
  L 311.93 140.21
  A 0.52 0.51 28.4 0 1 312.88 139.93
  L 313.78 141.30
  A 0.50 0.49 42.6 0 0 314.63 141.27
  Q 315.03 140.55 314.31 139.64
  C 313.00 137.98 310.28 138.77 310.33 141.02
  Q 310.38 143.34 310.50 145.09
  A 2.11 2.10 81.7 0 0 313.06 147.01
  Q 314.92 146.58 314.78 144.51
  A 0.64 0.64 0.0 0 0 313.53 144.35
  L 313.05 145.77
  A 0.55 0.55 0.0 0 1 311.98 145.60"
/>
<path stroke="#815a0f" vector-effect="non-scaling-stroke" d="
  M 318.49 145.50
  L 318.79 146.51
  A 0.69 0.69 0.0 0 0 320.13 146.18
  L 318.84 139.64
  A 1.07 1.07 0.0 0 0 316.73 139.65
  L 315.48 146.35
  Q 315.38 146.89 315.92 146.81
  Q 316.85 146.69 316.91 145.69
  A 0.81 0.81 0.0 0 1 318.49 145.50"
/>
<path stroke="#815a0f" vector-effect="non-scaling-stroke" d="
  M 155.1552 139.6425
  A 0.62 0.62 0.0 0 0 154.5287 139.0291
  L 154.3087 139.0314
  A 0.62 0.62 0.0 0 0 153.6953 139.6578
  L 153.7648 146.2975
  A 0.62 0.62 0.0 0 0 154.3913 146.9109
  L 154.6113 146.9086
  A 0.62 0.62 0.0 0 0 155.2247 146.2822
  L 155.1552 139.6425"
/>
<path stroke="#815a0f" vector-effect="non-scaling-stroke" d="
  M 157.61 140.85
  L 157.55 146.26
  Q 157.54 146.73 158.02 146.80
  L 158.28 146.84
  Q 159.00 146.94 159.00 146.22
  L 159.02 140.74
  A 0.75 0.74 -10.1 0 1 159.51 140.04
  L 160.28 139.74
  A 0.38 0.38 0.0 0 0 160.15 139.00
  L 156.44 138.93
  A 0.37 0.37 0.0 0 0 156.25 139.63
  L 157.20 140.16
  Q 157.61 140.38 157.61 140.85"
/>
<path stroke="#815a0f" vector-effect="non-scaling-stroke" d="
  M 274.9714 139.5990
  A 0.65 0.65 0.0 0 0 274.3294 138.9412
  L 274.1894 138.9394
  A 0.65 0.65 0.0 0 0 273.5315 139.5815
  L 273.4486 146.3610
  A 0.65 0.65 0.0 0 0 274.0906 147.0188
  L 274.2306 147.0206
  A 0.65 0.65 0.0 0 0 274.8885 146.3785
  L 274.9714 139.5990"
/>
<path stroke="#815a0f" vector-effect="non-scaling-stroke" d="
  M 289.42 145.62
  L 289.32 139.35
  A 0.44 0.44 0.0 0 0 288.84 138.92
  Q 288.65 138.94 288.48 138.96
  Q 287.97 139.00 287.97 139.52
  L 287.95 145.71
  A 0.97 0.95 -74.1 0 0 288.39 146.52
  Q 290.23 147.69 291.90 146.27
  A 1.04 1.02 -20.9 0 0 292.27 145.46
  L 292.22 139.54
  Q 292.21 139.11 291.80 139.01
  Q 291.61 138.96 291.43 138.92
  A 0.39 0.38 7.8 0 0 290.95 139.28
  L 290.74 145.63
  A 0.66 0.66 0.0 0 1 289.42 145.62"
/>
<path stroke="#815a0f" vector-effect="non-scaling-stroke" d="
  M 309.0920 139.4588
  A 0.53 0.53 0.0 0 0 308.5685 138.9224
  L 308.2285 138.9182
  A 0.53 0.53 0.0 0 0 307.6921 139.4417
  L 307.6080 146.3212
  A 0.53 0.53 0.0 0 0 308.1315 146.8576
  L 308.4715 146.8618
  A 0.53 0.53 0.0 0 0 309.0079 146.3383
  L 309.0920 139.4588"
/>
<path stroke="#815a0f" vector-effect="non-scaling-stroke" d="
  M 317.78 153.63
  L 319.25 154.78
  A 0.61 0.61 0.0 0 0 320.19 154.05
  C 319.23 151.96 316.00 151.62 315.63 153.97
  Q 315.19 156.82 315.85 159.65
  A 1.04 1.03 -89.1 0 0 316.59 160.42
  Q 318.03 160.81 319.47 160.21
  A 2.45 1.82 -54.1 0 0 319.42 155.91
  Q 319.10 155.98 318.87 156.00
  Q 317.84 156.11 318.32 157.02
  Q 318.88 158.08 318.36 159.26
  A 0.71 0.70 -33.1 0 1 317.01 158.98
  L 317.03 153.99
  A 0.46 0.46 0.0 0 1 317.78 153.63"
/>
<path stroke="#815a0f" vector-effect="non-scaling-stroke" d="
  M 304.46 154.08
  Q 304.50 156.25 304.40 158.38
  C 304.25 161.64 308.92 161.20 308.88 158.25
  Q 308.85 155.61 308.69 152.96
  Q 308.66 152.48 308.18 152.49
  L 307.87 152.49
  Q 307.25 152.51 307.25 153.13
  L 307.27 158.65
  Q 307.27 159.61 306.35 159.35
  L 306.07 159.27
  Q 305.74 159.18 305.74 158.83
  L 305.76 153.26
  Q 305.77 152.75 305.26 152.72
  L 300.52 152.45
  A 0.54 0.54 0.0 0 0 299.95 152.99
  L 299.92 159.86
  A 0.58 0.58 0.0 0 0 300.41 160.43
  L 300.74 160.48
  Q 301.28 160.56 301.28 160.01
  L 301.30 157.61
  Q 301.30 157.02 301.89 156.99
  L 303.00 156.95
  A 0.40 0.40 0.0 0 0 303.24 156.25
  Q 302.78 155.85 302.11 155.93
  A 1.14 1.14 0.0 0 1 301.53 153.75
  Q 302.61 153.31 303.99 153.53
  Q 304.46 153.61 304.46 154.08"
/>
<path stroke="#815a0f" vector-effect="non-scaling-stroke" d="
  M 312.26 157.28
  L 313.07 159.86
  Q 313.19 160.26 313.59 160.41
  L 313.90 160.52
  Q 314.97 160.90 314.58 159.83
  L 313.80 157.70
  A 1.10 1.09 51.3 0 1 313.90 156.77
  Q 314.92 155.15 314.22 153.33
  Q 314.02 152.80 313.45 152.72
  L 310.85 152.39
  Q 310.27 152.32 310.25 152.91
  L 310.11 159.88
  Q 310.10 160.40 310.62 160.41
  L 311.13 160.42
  A 0.52 0.52 0.0 0 0 311.66 159.87
  L 311.53 157.41
  A 0.37 0.37 0.0 0 1 312.26 157.28"
/>
<path stroke="#815a0f" vector-effect="non-scaling-stroke" d="
  M 163.3071 146.1899
  A 3.28 0.90 90.4 0 0 164.2300 142.9163
  A 3.28 0.90 90.4 0 0 163.3529 139.6301
  A 3.28 0.90 90.4 0 0 162.4300 142.9037
  A 3.28 0.90 90.4 0 0 163.3071 146.1899"
/>
<path stroke="#815a0f" vector-effect="non-scaling-stroke" d="
  M 150.2841 142.4483
  A 1.26 0.78 93.0 0 0 151.1289 141.2308
  A 1.26 0.78 93.0 0 0 150.4159 139.9317
  A 1.26 0.78 93.0 0 0 149.5711 141.1492
  A 1.26 0.78 93.0 0 0 150.2841 142.4483"
/>
<path stroke="#815a0f" vector-effect="non-scaling-stroke" d="
  M 169.0527 142.3696
  A 1.25 0.79 88.5 0 0 169.8097 141.0993
  A 1.25 0.79 88.5 0 0 168.9873 139.8704
  A 1.25 0.79 88.5 0 0 168.2303 141.1407
  A 1.25 0.79 88.5 0 0 169.0527 142.3696"
/>
<path stroke="#815a0f" vector-effect="non-scaling-stroke" d="
  M 177.5656 146.1700
  A 3.23 0.88 89.9 0 0 178.4400 142.9385
  A 3.23 0.88 89.9 0 0 177.5544 139.7100
  A 3.23 0.88 89.9 0 0 176.6800 142.9415
  A 3.23 0.88 89.9 0 0 177.5656 146.1700"
/>
<path stroke="#815a0f" vector-effect="non-scaling-stroke" d="
  M 193.0685 146.2700
  A 3.30 0.92 90.2 0 0 194.0000 142.9732
  A 3.30 0.92 90.2 0 0 193.0915 139.6700
  A 3.30 0.92 90.2 0 0 192.1600 142.9668
  A 3.30 0.92 90.2 0 0 193.0685 146.2700"
/>
<path stroke="#815a0f" vector-effect="non-scaling-stroke" d="
  M 199.6355 140.6353
  A 0.72 0.72 0.0 0 0 198.9205 139.9103
  L 198.8605 139.9099
  A 0.72 0.72 0.0 0 0 198.1355 140.6248
  L 198.1045 145.0647
  A 0.72 0.72 0.0 0 0 198.8195 145.7897
  L 198.8795 145.7901
  A 0.72 0.72 0.0 0 0 199.6045 145.0752
  L 199.6355 140.6353"
/>
<path stroke="#815a0f" vector-effect="non-scaling-stroke" d="
  M 214.0244 146.1600
  A 3.19 0.91 90.1 0 0 214.9400 142.9716
  A 3.19 0.91 90.1 0 0 214.0356 139.7800
  A 3.19 0.91 90.1 0 0 213.1200 142.9684
  A 3.19 0.91 90.1 0 0 214.0244 146.1600"
/>
<path stroke="#815a0f" vector-effect="non-scaling-stroke" d="
  M 222.0180 146.0499
  A 3.15 0.88 90.4 0 0 222.9200 142.9061
  A 3.15 0.88 90.4 0 0 222.0620 139.7501
  A 3.15 0.88 90.4 0 0 221.1600 142.8939
  A 3.15 0.88 90.4 0 0 222.0180 146.0499"
/>
<path stroke="#815a0f" vector-effect="non-scaling-stroke" d="
  M 234.79 142.90
  Q 234.59 143.28 234.66 143.62
  A 0.53 0.52 -52.0 0 0 235.70 143.49
  Q 235.67 142.87 235.45 142.27
  Q 235.33 141.93 235.11 142.21
  Q 235.03 142.32 234.98 142.45
  Q 234.83 142.84 234.79 142.90"
/>
<path stroke="#815a0f" vector-effect="non-scaling-stroke" d="
  M 251.20 143.16
  Q 250.77 143.43 250.22 143.34
  A 1.34 1.10 52.3 0 0 250.15 145.79
  Q 251.54 146.20 252.78 145.04
  Q 253.16 144.68 253.54 145.03
  L 254.38 145.78
  A 0.56 0.55 -59.7 0 0 255.28 145.54
  L 255.43 145.08
  A 0.81 0.80 -65.3 0 0 255.09 144.15
  Q 252.98 142.85 252.28 140.54
  Q 252.08 139.87 251.39 139.90
  L 250.12 139.96
  A 1.13 1.12 -46.6 0 0 250.18 142.21
  Q 250.74 142.21 251.18 142.45
  Q 251.80 142.78 251.20 143.16"
/>
<path stroke="#815a0f" vector-effect="non-scaling-stroke" d="
  M 264.2342 146.1997
  A 3.28 0.90 90.8 0 0 265.1799 142.9326
  A 3.28 0.90 90.8 0 0 264.3258 139.6403
  A 3.28 0.90 90.8 0 0 263.3801 142.9074
  A 3.28 0.90 90.8 0 0 264.2342 146.1997"
/>
<path stroke="#815a0f" vector-effect="non-scaling-stroke" d="
  M 269.49 142.32
  Q 269.52 142.86 269.96 142.55
  Q 271.55 141.45 270.36 140.01
  A 0.55 0.55 0.0 0 0 269.38 140.39
  L 269.49 142.32"
/>
<path stroke="#815a0f" vector-effect="non-scaling-stroke" d="
  M 278.88 143.63
  Q 278.92 142.81 278.76 142.02
  Q 278.60 141.26 278.33 141.99
  Q 277.99 142.94 278.04 143.91
  A 0.51 0.37 -54.0 0 0 278.88 143.63"
/>
<path stroke="#815a0f" vector-effect="non-scaling-stroke" d="
  M 295.8411 142.4398
  A 1.21 0.83 89.0 0 0 296.6499 141.2155
  A 1.21 0.83 89.0 0 0 295.7989 140.0202
  A 1.21 0.83 89.0 0 0 294.9901 141.2445
  A 1.21 0.83 89.0 0 0 295.8411 142.4398"
/>
<path stroke="#815a0f" vector-effect="non-scaling-stroke" d="
  M 304.0233 145.9900
  A 3.18 0.83 90.3 0 0 304.8700 142.8143
  A 3.18 0.83 90.3 0 0 304.0567 139.6300
  A 3.18 0.83 90.3 0 0 303.2100 142.8057
  A 3.18 0.83 90.3 0 0 304.0233 145.9900"
/>
<path stroke="#724217" vector-effect="non-scaling-stroke" d="
  M 318.12 142.03
  L 318.12 141.33
  Q 318.12 140.34 317.75 141.26
  Q 317.30 142.36 317.14 143.38
  A 0.59 0.59 0.0 0 0 318.28 143.67
  Q 318.39 143.38 318.26 142.98
  Q 318.12 142.51 318.12 142.03"
/>
<path stroke="#fed78b" vector-effect="non-scaling-stroke" d="
  M 84.20 143.53
  Q 68.44 147.54 51.99 149.91
  Q 30.87 152.95 9.79 149.16"
/>
<path stroke="#fed78b" vector-effect="non-scaling-stroke" d="
  M 90.22 150.39
  L 84.03 152.28"
/>
<path stroke="#ffe1af" vector-effect="non-scaling-stroke" d="
  M 84.03 152.28
  L 77.79 154.08"
/>
<path stroke="#fed78b" vector-effect="non-scaling-stroke" d="
  M 77.79 154.08
  Q 63.75 158.20 51.24 160.28
  Q 30.90 163.67 9.84 160.49"
/>
<path stroke="#cd8e13" stroke-opacity="0.620" vector-effect="non-scaling-stroke" d="
  M 115.31 164.97
  L 10.35 165.00"
/>
<path stroke="#feb93b" vector-effect="non-scaling-stroke" d="
  M 77.79 154.08
  Q 80.98 153.92 84.03 152.28"
/>
<path stroke="#815a0f" vector-effect="non-scaling-stroke" d="
  M 312.1898 155.9872
  A 1.15 0.80 94.0 0 0 313.0681 154.8958
  A 1.15 0.80 94.0 0 0 312.3502 153.6928
  A 1.15 0.80 94.0 0 0 311.4719 154.7842
  A 1.15 0.80 94.0 0 0 312.1898 155.9872"
/>
</g>
<path fill="#ffffff" d="
  M 9.74 0.00
  L 325.25 0.00
  L 325.23 112.30
  Q 293.81 101.85 261.00 99.03
  Q 231.47 96.49 204.75 102.12
  C 175.47 108.28 154.88 115.73 122.12 127.25
  C 113.90 130.14 105.01 132.58 96.42 135.32
  C 73.02 90.42 102.64 48.54 140.60 26.13
  A 0.41 0.41 0.0 0 0 140.33 25.37
  C 115.42 29.10 90.86 45.47 77.40 66.65
  Q 57.41 98.08 74.92 130.88
  C 76.49 133.82 78.85 136.94 80.78 139.92
  C 62.46 143.16 42.68 146.20 23.50 143.24
  Q 20.24 142.73 9.66 140.18
  L 9.74 0.00
  Z
  M 75.18 40.23
  C 66.72 21.67 49.24 11.72 29.40 9.63
  A 0.33 0.33 0.0 0 0 29.16 10.22
  C 34.19 14.19 39.93 17.90 43.96 22.32
  C 59.96 39.91 62.50 60.84 61.83 83.88
  A 0.36 0.36 0.0 0 0 62.51 84.06
  Q 68.30 73.45 74.06 63.01
  C 76.43 58.73 79.98 55.87 78.94 49.96
  Q 78.52 47.54 75.18 40.23
  Z
  M 90.9887 38.6726
  A 14.56 13.68 92.8 0 0 105.3637 24.7983
  A 14.56 13.68 92.8 0 0 92.4113 9.5874
  A 14.56 13.68 92.8 0 0 78.0363 23.4617
  A 14.56 13.68 92.8 0 0 90.9887 38.6726
  Z
  M 28.50 25.76
  L 28.76 49.90
  Q 28.76 49.94 28.80 49.94
  Q 28.96 49.97 29.09 49.84
  A 1.00 0.39 -39.1 0 0 29.42 49.26
  L 30.97 26.24
  A 0.43 0.42 -55.2 0 1 31.78 26.09
  Q 36.24 36.15 41.12 46.37
  Q 41.32 46.79 41.61 46.96
  A 0.17 0.17 0.0 0 0 41.86 46.75
  L 30.78 18.87
  Q 30.45 18.05 30.03 18.83
  L 15.27 46.19
  A 0.29 0.29 0.0 0 0 15.78 46.47
  L 27.84 25.59
  Q 28.49 24.46 28.50 25.76
  Z
  M 135.02 87.78
  L 101.58 87.64
  A 0.96 0.96 0.0 0 0 100.90 89.28
  Q 116.84 105.19 135.36 93.25
  L 168.75 93.25
  Q 169.26 93.25 169.26 92.74
  L 169.24 85.74
  Q 169.24 85.23 168.74 85.23
  L 147.90 85.23
  Q 147.30 85.23 147.30 84.64
  L 147.30 68.82
  Q 147.30 68.19 147.93 68.19
  L 164.41 68.17
  Q 165.00 68.17 165.00 67.59
  L 164.99 60.51
  Q 164.99 60.03 164.51 60.03
  L 147.95 60.09
  A 0.64 0.64 0.0 0 1 147.31 59.45
  L 147.28 44.48
  A 0.50 0.49 -90.0 0 1 147.77 43.98
  L 168.76 43.99
  A 0.51 0.50 0.0 0 0 169.27 43.49
  L 169.26 36.26
  Q 169.26 35.75 168.76 35.75
  L 135.52 35.75
  Q 135.02 35.75 135.02 36.25
  L 135.02 87.78
  Z
  M 191.46 54.23
  L 201.14 84.53
  Q 201.32 85.08 201.89 85.07
  L 208.14 84.96
  Q 208.60 84.95 208.74 84.51
  L 218.41 54.17
  A 0.20 0.19 53.8 0 1 218.79 54.23
  L 218.80 92.79
  A 0.50 0.49 -90.0 0 0 219.29 93.29
  L 230.51 93.29
  Q 231.05 93.29 231.05 92.75
  L 231.03 36.40
  Q 231.03 35.76 230.40 35.76
  L 215.04 35.75
  Q 214.52 35.75 214.37 36.25
  L 205.45 65.75
  Q 205.12 66.83 204.79 65.75
  L 195.81 36.37
  Q 195.62 35.76 194.98 35.76
  L 180.01 35.75
  Q 179.52 35.75 179.52 36.24
  L 179.52 92.78
  Q 179.52 93.28 180.03 93.28
  L 190.56 93.26
  Q 191.13 93.26 191.13 92.69
  L 191.07 54.29
  A 0.20 0.20 0.0 0 1 191.46 54.23
  Z
  M 254.44 80.75
  A 0.51 0.51 0.0 0 1 254.94 80.34
  L 267.44 80.37
  A 0.51 0.51 0.0 0 1 267.94 80.78
  L 270.37 92.85
  A 0.51 0.51 0.0 0 0 270.87 93.26
  L 282.35 93.32
  A 0.51 0.51 0.0 0 0 282.85 92.69
  L 269.25 36.15
  A 0.51 0.51 0.0 0 0 268.76 35.76
  L 253.92 35.75
  A 0.51 0.51 0.0 0 0 253.43 36.14
  L 239.83 92.68
  A 0.51 0.51 0.0 0 0 240.33 93.31
  L 251.58 93.27
  A 0.51 0.51 0.0 0 0 252.08 92.86
  L 254.44 80.75
  Z
  M 301.25 80.07
  C 301.25 87.08 292.82 86.27 287.97 85.45
  A 0.59 0.59 0.0 0 0 287.28 85.98
  L 286.70 92.78
  Q 286.66 93.26 287.13 93.36
  C 295.13 95.03 308.63 94.79 312.36 86.27
  Q 313.49 83.69 313.52 78.06
  Q 313.63 57.18 313.52 36.29
  Q 313.52 35.76 312.99 35.76
  L 301.78 35.75
  Q 301.28 35.75 301.27 36.26
  Q 301.25 58.20 301.25 80.07
  Z
  M 122.37 59.26
  A 0.59 0.59 0.0 0 1 123.50 59.07
  Q 127.68 68.93 132.32 78.58
  Q 132.93 79.84 132.67 78.47
  Q 131.90 74.41 130.74 71.82
  Q 126.46 62.20 122.35 51.63
  Q 121.85 50.33 121.18 51.55
  L 107.08 77.56
  Q 106.88 77.94 107.29 77.83
  Q 107.90 77.68 108.19 77.17
  Q 113.57 67.80 118.68 58.48
  A 0.56 0.56 0.0 0 1 119.73 58.74
  Q 119.92 69.91 120.12 81.25
  Q 120.13 81.87 120.37 82.20
  Q 120.71 82.69 120.75 82.10
  L 122.37 59.26
  Z
  M 9.78 55.77
  C 19.23 68.82 37.70 68.25 47.66 56.27
  Q 48.70 55.00 47.06 55.00
  L 10.18 54.98
  A 0.50 0.50 0.0 0 0 9.78 55.77
  Z"
/>
<path fill="#c4122f" d="
  M 29.40 9.63
  C 49.24 11.72 66.72 21.67 75.18 40.23
  Q 78.52 47.54 78.94 49.96
  C 79.98 55.87 76.43 58.73 74.06 63.01
  Q 68.30 73.45 62.51 84.06
  A 0.36 0.36 0.0 0 1 61.83 83.88
  C 62.50 60.84 59.96 39.91 43.96 22.32
  C 39.93 17.90 34.19 14.19 29.16 10.22
  A 0.33 0.33 0.0 0 1 29.40 9.63
  Z"
/>
<ellipse fill="#fdaf17" cx="0.00" cy="0.00" transform="translate(91.70,24.13) rotate(92.8)" rx="14.56" ry="13.68"/>
<path fill="#df7e27" d="
  M 27.84 25.59
  L 15.78 46.47
  A 0.29 0.29 0.0 0 1 15.27 46.19
  L 30.03 18.83
  Q 30.45 18.05 30.78 18.87
  L 41.86 46.75
  A 0.17 0.17 0.0 0 1 41.61 46.96
  Q 41.32 46.79 41.12 46.37
  Q 36.24 36.15 31.78 26.09
  A 0.43 0.42 -55.2 0 0 30.97 26.24
  L 29.42 49.26
  A 1.00 0.39 -39.1 0 1 29.09 49.84
  Q 28.96 49.97 28.80 49.94
  Q 28.76 49.94 28.76 49.90
  L 28.50 25.76
  Q 28.49 24.46 27.84 25.59
  Z"
/>
<path fill="#df7e27" d="
  M 96.42 135.32
  L 98.76 139.48
  L 100.17 141.99
  Q 100.02 142.70 100.41 143.22
  Q 108.27 153.91 118.54 164.98
  L 115.31 164.97
  Q 102.59 160.33 92.21 151.58
  C 91.55 151.02 90.94 150.90 90.22 150.39
  Q 90.13 150.30 90.11 150.07
  Q 90.10 149.77 89.88 149.54
  L 84.20 143.53
  L 80.78 139.92
  C 78.85 136.94 76.49 133.82 74.92 130.88
  Q 57.41 98.08 77.40 66.65
  C 90.86 45.47 115.42 29.10 140.33 25.37
  A 0.41 0.41 0.0 0 1 140.60 26.13
  C 102.64 48.54 73.02 90.42 96.42 135.32
  Z"
/>
<path fill="#040507" d="
  M 135.36 93.25
  L 139.37 88.53
  Q 139.98 87.81 139.04 87.80
  L 135.02 87.78
  L 135.02 36.25
  Q 135.02 35.75 135.52 35.75
  L 168.76 35.75
  Q 169.26 35.75 169.26 36.26
  L 169.27 43.49
  A 0.51 0.50 0.0 0 1 168.76 43.99
  L 147.77 43.98
  A 0.50 0.49 -90.0 0 0 147.28 44.48
  L 147.31 59.45
  A 0.64 0.64 0.0 0 0 147.95 60.09
  L 164.51 60.03
  Q 164.99 60.03 164.99 60.51
  L 165.00 67.59
  Q 165.00 68.17 164.41 68.17
  L 147.93 68.19
  Q 147.30 68.19 147.30 68.82
  L 147.30 84.64
  Q 147.30 85.23 147.90 85.23
  L 168.74 85.23
  Q 169.24 85.23 169.24 85.74
  L 169.26 92.74
  Q 169.26 93.25 168.75 93.25
  L 135.36 93.25
  Z"
/>
<path fill="#040507" d="
  M 191.07 54.29
  L 191.13 92.69
  Q 191.13 93.26 190.56 93.26
  L 180.03 93.28
  Q 179.52 93.28 179.52 92.78
  L 179.52 36.24
  Q 179.52 35.75 180.01 35.75
  L 194.98 35.76
  Q 195.62 35.76 195.81 36.37
  L 204.79 65.75
  Q 205.12 66.83 205.45 65.75
  L 214.37 36.25
  Q 214.52 35.75 215.04 35.75
  L 230.40 35.76
  Q 231.03 35.76 231.03 36.40
  L 231.05 92.75
  Q 231.05 93.29 230.51 93.29
  L 219.29 93.29
  A 0.50 0.49 90.0 0 1 218.80 92.79
  L 218.79 54.23
  A 0.20 0.19 53.8 0 0 218.41 54.17
  L 208.74 84.51
  Q 208.60 84.95 208.14 84.96
  L 201.89 85.07
  Q 201.32 85.08 201.14 84.53
  L 191.46 54.23
  A 0.20 0.20 0.0 0 0 191.07 54.29
  Z"
/>
<path fill="#040507" d="
  M 254.44 80.75
  L 252.08 92.86
  A 0.51 0.51 0.0 0 1 251.58 93.27
  L 240.33 93.31
  A 0.51 0.51 0.0 0 1 239.83 92.68
  L 253.43 36.14
  A 0.51 0.51 0.0 0 1 253.92 35.75
  L 268.76 35.76
  A 0.51 0.51 0.0 0 1 269.25 36.15
  L 282.85 92.69
  A 0.51 0.51 0.0 0 1 282.35 93.32
  L 270.87 93.26
  A 0.51 0.51 0.0 0 1 270.37 92.85
  L 267.94 80.78
  A 0.51 0.51 0.0 0 0 267.44 80.37
  L 254.94 80.34
  A 0.51 0.51 0.0 0 0 254.44 80.75
  Z
  M 256.29 72.04
  A 0.16 0.15 -85.2 0 0 256.44 72.23
  L 265.60 72.23
  A 0.50 0.49 84.6 0 0 266.08 71.64
  L 261.46 48.76
  A 0.25 0.25 0.0 0 0 260.96 48.76
  L 256.29 72.04
  Z"
/>
<path fill="#040507" d="
  M 287.97 85.45
  C 292.82 86.27 301.25 87.08 301.25 80.07
  Q 301.25 58.20 301.27 36.26
  Q 301.28 35.75 301.78 35.75
  L 312.99 35.76
  Q 313.52 35.76 313.52 36.29
  Q 313.63 57.18 313.52 78.06
  Q 313.49 83.69 312.36 86.27
  C 308.63 94.79 295.13 95.03 287.13 93.36
  Q 286.66 93.26 286.70 92.78
  L 287.28 85.98
  A 0.59 0.59 0.0 0 1 287.97 85.45
  Z"
/>
<path fill="#ffffff" d="
  M 256.29 72.04
  L 260.96 48.76
  A 0.25 0.25 0.0 0 1 261.46 48.76
  L 266.08 71.64
  A 0.50 0.49 84.6 0 1 265.60 72.23
  L 256.44 72.23
  A 0.16 0.15 -85.2 0 1 256.29 72.04
  Z"
/>
<path fill="#fdaf17" d="
  M 122.37 59.26
  L 120.75 82.10
  Q 120.71 82.69 120.37 82.20
  Q 120.13 81.87 120.12 81.25
  Q 119.92 69.91 119.73 58.74
  A 0.56 0.56 0.0 0 0 118.68 58.48
  Q 113.57 67.80 108.19 77.17
  Q 107.90 77.68 107.29 77.83
  Q 106.88 77.94 107.08 77.56
  L 121.18 51.55
  Q 121.85 50.33 122.35 51.63
  Q 126.46 62.20 130.74 71.82
  Q 131.90 74.41 132.67 78.47
  Q 132.93 79.84 132.32 78.58
  Q 127.68 68.93 123.50 59.07
  A 0.59 0.59 0.0 0 0 122.37 59.26
  Z"
/>
<path fill="#df7e27" d="
  M 9.78 55.77
  A 0.50 0.50 0.0 0 1 10.18 54.98
  L 47.06 55.00
  Q 48.70 55.00 47.66 56.27
  C 37.70 68.25 19.23 68.82 9.78 55.77
  Z"
/>
<path fill="#fdaf17" d="
  M 135.02 87.78
  L 139.04 87.80
  Q 139.98 87.81 139.37 88.53
  L 135.36 93.25
  Q 116.84 105.19 100.90 89.28
  A 0.96 0.96 0.0 0 1 101.58 87.64
  L 135.02 87.78
  Z"
/>
<path fill="#fec35f" d="
  M 325.23 112.30
  L 325.24 130.60
  Q 293.96 117.70 260.99 112.91
  Q 228.29 108.16 196.75 113.56
  Q 185.62 115.46 169.65 119.19
  C 168.00 119.57 167.27 120.39 165.28 120.58
  Q 163.75 120.73 162.41 121.63
  Q 162.32 121.69 162.23 121.64
  L 161.88 121.45
  Q 161.69 121.35 161.49 121.43
  L 150.38 125.80
  Q 151.45 124.78 152.17 124.48
  Q 159.62 121.41 167.10 118.40
  Q 186.91 110.43 207.48 104.59
  Q 208.53 104.29 207.45 104.16
  Q 206.48 104.05 205.23 104.35
  Q 182.16 109.85 161.70 117.12
  C 146.05 122.68 130.41 128.24 114.86 134.05
  Q 106.96 137.01 98.76 139.48
  L 96.42 135.32
  C 105.01 132.58 113.90 130.14 122.12 127.25
  C 154.88 115.73 175.47 108.28 204.75 102.12
  Q 231.47 96.49 261.00 99.03
  Q 293.81 101.85 325.23 112.30
  Z"
/>
<path fill="#ffffff" d="
  M 150.38 125.80
  Q 144.20 127.89 138.22 130.70
  Q 129.76 134.68 126.31 136.05
  Q 110.81 142.22 106.47 144.20
  Q 101.76 146.35 100.17 141.99
  L 98.76 139.48
  Q 106.96 137.01 114.86 134.05
  C 130.41 128.24 146.05 122.68 161.70 117.12
  Q 182.16 109.85 205.23 104.35
  Q 206.48 104.05 207.45 104.16
  Q 208.53 104.29 207.48 104.59
  Q 186.91 110.43 167.10 118.40
  Q 159.62 121.41 152.17 124.48
  Q 151.45 124.78 150.38 125.80
  Z"
/>
<path fill="#fdaf17" d="
  M 325.24 130.60
  Q 325.32 156.63 325.23 164.75
  Q 325.23 165.18 324.53 165.00
  L 118.54 164.98
  Q 108.27 153.91 100.41 143.22
  Q 100.02 142.70 100.17 141.99
  Q 101.76 146.35 106.47 144.20
  Q 110.81 142.22 126.31 136.05
  Q 129.76 134.68 138.22 130.70
  Q 144.20 127.89 150.38 125.80
  L 161.49 121.43
  Q 161.69 121.35 161.88 121.45
  L 162.23 121.64
  Q 162.32 121.69 162.41 121.63
  Q 163.75 120.73 165.28 120.58
  C 167.27 120.39 168.00 119.57 169.65 119.19
  Q 185.62 115.46 196.75 113.56
  Q 228.29 108.16 260.99 112.91
  Q 293.96 117.70 325.24 130.60
  Z
  M 300.51 138.05
  L 300.90 137.83
  A 0.34 0.34 0.0 0 0 300.74 137.19
  L 300.06 137.18
  A 0.42 0.42 0.0 0 0 299.63 137.59
  L 299.25 146.46
  A 0.65 0.65 0.0 0 0 300.54 146.60
  Q 301.23 142.67 300.21 138.74
  Q 300.09 138.28 300.51 138.05
  Z
  M 163.73 138.03
  Q 163.87 137.91 164.03 137.88
  A 0.32 0.31 -39.6 0 0 164.09 137.27
  Q 163.90 137.20 163.68 137.23
  Q 163.46 137.26 163.29 137.41
  Q 163.08 137.59 163.07 137.86
  Q 163.05 138.20 162.80 138.45
  Q 159.78 141.50 161.26 145.76
  A 2.14 2.13 67.9 0 0 164.18 147.00
  Q 166.12 146.10 165.53 143.88
  A 1.74 1.67 -46.2 0 1 165.53 142.99
  Q 166.34 139.90 163.78 138.56
  A 0.32 0.32 0.0 0 1 163.73 138.03
  Z
  M 135.10 143.53
  L 136.44 143.22
  Q 137.43 142.99 136.57 142.46
  Q 136.03 142.13 135.40 142.25
  A 0.75 0.75 0.0 0 1 134.52 141.48
  L 134.56 140.70
  A 0.56 0.55 85.3 0 1 134.99 140.18
  L 136.84 139.76
  A 0.44 0.44 0.0 0 0 136.74 138.89
  L 133.85 138.90
  Q 133.24 138.90 133.22 139.52
  L 133.07 146.30
  A 0.61 0.60 0.9 0 0 133.67 146.91
  L 136.89 146.96
  A 0.51 0.51 0.0 0 0 136.99 145.95
  L 135.09 145.61
  A 0.62 0.62 0.0 0 1 134.58 144.99
  L 134.59 144.16
  Q 134.60 143.65 135.10 143.53
  Z
  M 140.02 145.87
  L 138.71 144.92
  A 0.41 0.40 -72.2 0 0 138.07 145.25
  Q 138.06 147.45 141.05 146.82
  A 0.94 0.90 -68.0 0 0 141.45 146.64
  C 144.22 144.58 139.92 142.33 139.23 140.58
  A 0.50 0.50 0.0 0 1 139.97 139.97
  L 141.29 140.81
  A 0.46 0.45 9.9 0 0 141.98 140.33
  Q 141.67 138.94 140.24 138.80
  Q 138.36 138.61 137.97 140.45
  C 137.50 142.67 140.55 143.10 140.93 145.30
  A 0.58 0.58 0.0 0 1 140.02 145.87
  Z
  M 145.49 140.00
  L 146.49 141.45
  A 0.48 0.48 0.0 0 0 147.36 141.16
  Q 147.28 138.96 144.95 138.82
  A 1.83 1.83 0.0 0 0 143.01 140.63
  L 142.98 145.17
  A 1.72 1.72 0.0 0 0 144.17 146.82
  Q 146.13 147.46 147.07 146.04
  Q 147.74 145.04 147.27 144.45
  A 0.73 0.73 0.0 0 0 146.03 144.63
  L 145.49 145.91
  A 0.52 0.51 56.3 0 1 144.50 145.71
  L 144.46 140.32
  A 0.57 0.56 27.6 0 1 145.49 140.00
  Z
  M 150.48 144.11
  L 151.18 146.41
  Q 151.30 146.79 151.69 146.88
  L 152.18 147.00
  Q 152.76 147.13 152.59 146.56
  L 151.87 144.11
  Q 151.71 143.57 151.99 143.09
  Q 152.87 141.54 152.29 139.86
  Q 152.08 139.26 151.45 139.18
  L 148.95 138.86
  A 0.58 0.58 0.0 0 0 148.29 139.41
  Q 148.13 142.84 148.27 146.25
  Q 148.30 147.07 149.11 147.00
  Q 149.57 146.96 149.59 146.50
  L 149.66 144.21
  A 0.42 0.42 0.0 0 1 150.48 144.11
  Z
  M 168.31 144.29
  A 0.42 0.42 0.0 0 1 169.12 144.14
  L 170.03 146.87
  A 0.64 0.64 0.0 0 0 171.25 146.51
  L 170.63 144.02
  Q 170.50 143.51 170.77 143.05
  C 172.41 140.29 170.23 138.30 167.48 138.92
  Q 167.01 139.03 167.01 139.51
  L 167.00 146.32
  Q 167.00 146.90 167.58 146.85
  L 167.87 146.82
  Q 168.38 146.78 168.36 146.27
  L 168.31 144.29
  Z
  M 174.0038 139.3287
  A 0.44 0.44 0.0 0 0 173.5630 138.8895
  L 172.9630 138.8905
  A 0.44 0.44 0.0 0 0 172.5238 139.3313
  L 172.5362 146.4513
  A 0.44 0.44 0.0 0 0 172.9770 146.8905
  L 173.5770 146.8895
  A 0.44 0.44 0.0 0 0 174.0162 146.4487
  L 174.0038 139.3287
  Z
  M 179.9602 141.0248
  A 2.21 2.21 0.0 0 0 177.7734 138.7918
  L 177.4735 138.7887
  A 2.21 2.21 0.0 0 0 175.2404 140.9754
  L 175.1998 144.8552
  A 2.21 2.21 0.0 0 0 177.3866 147.0882
  L 177.6865 147.0913
  A 2.21 2.21 0.0 0 0 179.9196 144.9046
  L 179.9602 141.0248
  Z
  M 185.55 143.72
  L 186.21 145.56
  A 0.48 0.48 0.0 0 0 187.14 145.44
  L 187.31 143.73
  A 0.28 0.28 0.0 0 1 187.83 143.63
  Q 188.36 144.60 188.14 145.79
  Q 187.96 146.80 188.72 146.83
  Q 189.41 146.87 189.41 146.17
  L 189.40 139.73
  A 1.04 1.04 0.0 0 0 187.32 139.65
  L 187.09 142.29
  A 0.34 0.34 0.0 0 1 186.44 142.38
  L 185.30 139.35
  Q 185.16 139.00 184.80 138.93
  L 184.28 138.84
  A 0.64 0.64 0.0 0 0 183.52 139.47
  L 183.50 146.73
  Q 183.50 147.21 183.96 147.11
  Q 184.13 147.08 184.30 147.04
  A 0.64 0.64 0.0 0 0 184.78 146.45
  L 184.92 143.81
  A 0.33 0.32 36.7 0 1 185.55 143.72
  Z
  M 195.2635 140.9339
  A 2.11 2.11 0.0 0 0 193.1572 138.8203
  L 192.8572 138.8197
  A 2.11 2.11 0.0 0 0 190.7435 140.9261
  L 190.7365 144.9661
  A 2.11 2.11 0.0 0 0 192.8428 147.0797
  L 193.1428 147.0803
  A 2.11 2.11 0.0 0 0 195.2565 144.9739
  L 195.2635 140.9339
  Z
  M 200.9836 140.2190
  A 1.26 1.26 0.0 0 0 199.7346 138.9481
  L 197.9147 138.9322
  A 1.26 1.26 0.0 0 0 196.6437 140.1812
  L 196.5964 145.6010
  A 1.26 1.26 0.0 0 0 197.8454 146.8719
  L 199.6653 146.8878
  A 1.26 1.26 0.0 0 0 200.9363 145.6388
  L 200.9836 140.2190
  Z
  M 203.50 144.89
  L 203.63 144.18
  Q 203.74 143.60 204.32 143.50
  L 205.31 143.33
  A 0.47 0.46 -42.6 0 0 205.35 142.42
  L 203.97 142.07
  A 0.58 0.57 -80.2 0 1 203.54 141.45
  L 203.65 140.34
  Q 203.72 139.69 204.33 139.91
  Q 205.40 140.29 206.05 139.55
  A 0.40 0.39 -69.7 0 0 205.75 138.89
  L 202.78 138.95
  Q 202.28 138.96 202.27 139.47
  L 202.14 146.35
  Q 202.13 146.94 202.72 146.92
  L 205.94 146.82
  A 0.52 0.51 45.2 0 0 205.94 145.79
  L 204.15 145.71
  Q 203.36 145.67 203.50 144.89
  Z
  M 208.77 144.96
  Q 208.72 142.22 208.79 139.50
  Q 208.80 138.73 207.90 138.84
  A 0.65 0.64 -3.5 0 0 207.33 139.48
  L 207.29 146.25
  A 0.68 0.68 0.0 0 0 208.00 146.93
  L 210.96 146.78
  A 0.35 0.35 0.0 0 0 211.04 146.09
  L 209.26 145.60
  A 0.68 0.66 -83.2 0 1 208.77 144.96
  Z
  M 216.2474 140.7979
  A 1.97 1.97 0.0 0 0 214.2843 138.8210
  L 213.7243 138.8190
  A 1.97 1.97 0.0 0 0 211.7474 140.7822
  L 211.7326 145.0221
  A 1.97 1.97 0.0 0 0 213.6957 146.9990
  L 214.2557 147.0010
  A 1.97 1.97 0.0 0 0 216.2326 145.0378
  L 216.2474 140.7979
  Z
  M 224.2700 140.3299
  A 1.35 1.35 0.0 0 0 222.9510 138.9496
  L 221.3114 138.9124
  A 1.35 1.35 0.0 0 0 219.9311 140.2315
  L 219.8100 145.5701
  A 1.35 1.35 0.0 0 0 221.1290 146.9504
  L 222.7686 146.9876
  A 1.35 1.35 0.0 0 0 224.1489 145.6685
  L 224.2700 140.3299
  Z
  M 227.82 140.11
  L 229.77 139.80
  A 0.45 0.45 0.0 0 0 229.68 138.91
  L 226.39 138.99
  Q 225.77 139.00 225.77 139.61
  L 225.72 146.20
  Q 225.72 146.84 226.35 146.89
  Q 227.96 147.01 229.56 146.90
  A 0.59 0.59 0.0 0 0 229.50 145.73
  L 227.67 145.77
  A 0.57 0.57 0.0 0 1 227.08 145.16
  L 227.15 144.11
  Q 227.18 143.63 227.65 143.54
  L 228.91 143.29
  A 0.46 0.45 67.8 0 0 229.20 142.59
  Q 228.69 141.83 227.90 142.25
  A 0.56 0.56 0.0 0 1 227.07 141.74
  L 227.10 140.95
  Q 227.11 140.23 227.82 140.11
  Z
  M 238.05 146.41
  Q 239.27 147.19 240.88 146.99
  A 1.89 1.89 0.0 0 0 241.98 143.78
  L 239.57 141.37
  A 0.75 0.74 84.4 0 1 240.51 140.22
  L 241.44 140.84
  Q 241.95 141.18 242.07 140.58
  Q 242.23 139.80 241.47 139.25
  Q 240.11 138.26 238.75 139.04
  A 1.95 1.95 0.0 0 0 238.37 142.14
  L 240.98 144.63
  A 0.70 0.70 0.0 0 1 240.21 145.78
  L 238.51 145.01
  Q 238.00 144.79 237.85 145.32
  Q 237.81 145.46 237.79 145.63
  A 0.26 0.25 43.4 0 1 237.29 145.64
  Q 236.76 142.82 236.29 139.99
  Q 236.11 138.90 235.05 138.84
  A 0.82 0.80 7.1 0 0 234.22 139.47
  L 232.74 146.29
  A 0.60 0.60 0.0 0 0 233.67 146.90
  Q 234.37 146.39 234.37 145.45
  Q 234.37 144.79 235.00 144.97
  Q 235.86 145.22 236.02 146.16
  Q 236.11 146.67 236.61 146.78
  Q 237.14 146.91 237.39 146.54
  Q 237.65 146.15 238.05 146.41
  Z
  M 245.11 140.21
  L 246.09 140.77
  A 0.54 0.54 0.0 0 0 246.83 140.05
  Q 246.15 138.81 244.72 138.77
  Q 243.11 138.74 242.91 140.34
  L 242.81 141.19
  A 1.14 1.13 -65.5 0 0 243.18 142.19
  Q 244.41 143.30 245.60 144.47
  A 0.80 0.79 -0.7 0 1 244.49 145.60
  Q 244.05 145.18 243.62 144.77
  A 0.51 0.50 -53.5 0 0 242.83 144.89
  Q 242.61 145.28 242.68 145.69
  C 242.91 147.14 245.23 147.12 246.28 146.73
  A 1.02 1.02 0.0 0 0 246.93 145.89
  Q 247.23 143.19 244.80 141.92
  A 1.04 1.04 0.0 0 1 244.23 140.96
  L 244.24 140.70
  A 0.58 0.58 0.0 0 1 245.11 140.21
  Z
  M 257.50 146.21
  C 260.16 148.37 263.10 145.61 261.06 143.45
  Q 259.45 141.74 258.67 141.01
  A 0.55 0.54 77.9 0 1 259.25 140.11
  L 260.62 140.67
  A 0.53 0.53 0.0 0 0 261.29 139.92
  Q 260.41 138.32 258.26 138.91
  A 1.81 1.81 0.0 0 0 257.49 141.97
  L 260.11 144.46
  A 0.82 0.82 0.0 0 1 259.14 145.76
  Q 255.98 143.95 253.92 140.91
  A 0.50 0.50 0.0 0 1 254.53 140.16
  L 256.14 140.84
  A 0.40 0.40 0.0 0 0 256.67 140.32
  C 256.15 139.02 254.38 138.19 253.17 139.34
  Q 252.82 139.67 252.39 139.46
  Q 250.60 138.55 248.62 138.98
  Q 248.02 139.12 248.02 139.73
  L 248.01 146.39
  A 0.63 0.62 -2.5 0 0 248.70 147.02
  L 252.62 146.60
  Q 253.04 146.56 253.44 146.72
  Q 255.13 147.45 256.64 146.21
  Q 257.07 145.85 257.50 146.21
  Z
  M 266.5188 140.7584
  A 1.97 1.97 0.0 0 0 264.5385 138.7987
  L 264.0185 138.8014
  A 1.97 1.97 0.0 0 0 262.0589 140.7817
  L 262.0812 145.0416
  A 1.97 1.97 0.0 0 0 264.0615 147.0013
  L 264.5815 146.9986
  A 1.97 1.97 0.0 0 0 266.5411 145.0183
  L 266.5188 140.7584
  Z
  M 270.08 143.96
  L 270.89 146.57
  Q 270.99 146.90 271.34 146.94
  L 271.79 146.99
  Q 272.43 147.06 272.24 146.45
  L 271.47 144.02
  A 0.97 0.96 -37.0 0 1 271.59 143.21
  C 273.23 140.78 271.49 138.03 268.59 138.91
  Q 268.01 139.08 268.00 139.69
  L 267.86 146.32
  A 0.55 0.54 -2.4 0 0 268.46 146.87
  L 268.94 146.83
  Q 269.41 146.79 269.42 146.31
  L 269.45 144.05
  A 0.32 0.32 0.0 0 1 270.08 143.96
  Z
  M 278.85 145.16
  L 279.54 146.69
  Q 279.66 146.96 279.95 147.00
  L 280.25 147.04
  Q 280.92 147.14 280.79 146.47
  L 279.33 139.22
  A 0.99 0.99 0.0 0 0 277.38 139.23
  L 276.07 146.32
  Q 275.95 146.96 276.60 146.95
  L 277.03 146.94
  A 0.32 0.32 0.0 0 0 277.34 146.70
  L 277.72 145.26
  A 0.60 0.60 0.0 0 1 278.85 145.16
  Z
  M 285.03 139.84
  Q 285.95 143.52 284.11 146.68
  Q 283.58 147.60 284.58 147.23
  L 285.97 146.72
  A 0.82 0.79 -9.4 0 0 286.50 146.00
  Q 286.60 142.80 286.50 139.61
  Q 286.49 139.15 286.26 138.97
  Q 285.85 138.62 285.22 139.20
  A 0.67 0.65 62.3 0 0 285.03 139.84
  Z
  M 295.92 143.96
  Q 296.44 145.01 296.59 146.19
  Q 296.65 146.60 296.85 146.78
  Q 297.18 147.07 297.63 146.91
  Q 298.21 146.71 298.00 146.14
  L 297.24 143.99
  Q 297.10 143.57 297.34 143.20
  Q 299.35 140.08 296.13 138.84
  A 1.74 1.74 0.0 0 0 293.76 140.44
  L 293.67 146.25
  A 0.61 0.59 -81.2 0 0 294.09 146.84
  Q 294.65 147.03 295.03 146.29
  A 0.66 0.59 60.2 0 0 295.10 145.96
  Q 295.06 144.98 295.33 144.02
  Q 295.55 143.21 295.92 143.96
  Z
  M 306.1219 140.2954
  A 1.44 1.44 0.0 0 0 304.6718 138.8655
  L 303.3519 138.8747
  A 1.44 1.44 0.0 0 0 301.9220 140.3247
  L 301.9581 145.5046
  A 1.44 1.44 0.0 0 0 303.4082 146.9345
  L 304.7281 146.9253
  A 1.44 1.44 0.0 0 0 306.1580 145.4753
  L 306.1219 140.2954
  Z
  M 311.98 145.60
  L 311.93 140.21
  A 0.52 0.51 28.4 0 1 312.88 139.93
  L 313.78 141.30
  A 0.50 0.49 42.6 0 0 314.63 141.27
  Q 315.03 140.55 314.31 139.64
  C 313.00 137.98 310.28 138.77 310.33 141.02
  Q 310.38 143.34 310.50 145.09
  A 2.11 2.10 81.7 0 0 313.06 147.01
  Q 314.92 146.58 314.78 144.51
  A 0.64 0.64 0.0 0 0 313.53 144.35
  L 313.05 145.77
  A 0.55 0.55 0.0 0 1 311.98 145.60
  Z
  M 318.49 145.50
  L 318.79 146.51
  A 0.69 0.69 0.0 0 0 320.13 146.18
  L 318.84 139.64
  A 1.07 1.07 0.0 0 0 316.73 139.65
  L 315.48 146.35
  Q 315.38 146.89 315.92 146.81
  Q 316.85 146.69 316.91 145.69
  A 0.81 0.81 0.0 0 1 318.49 145.50
  Z
  M 155.1552 139.6425
  A 0.62 0.62 0.0 0 0 154.5287 139.0291
  L 154.3087 139.0314
  A 0.62 0.62 0.0 0 0 153.6953 139.6578
  L 153.7648 146.2975
  A 0.62 0.62 0.0 0 0 154.3913 146.9109
  L 154.6113 146.9086
  A 0.62 0.62 0.0 0 0 155.2247 146.2822
  L 155.1552 139.6425
  Z
  M 157.61 140.85
  L 157.55 146.26
  Q 157.54 146.73 158.02 146.80
  L 158.28 146.84
  Q 159.00 146.94 159.00 146.22
  L 159.02 140.74
  A 0.75 0.74 -10.1 0 1 159.51 140.04
  L 160.28 139.74
  A 0.38 0.38 0.0 0 0 160.15 139.00
  L 156.44 138.93
  A 0.37 0.37 0.0 0 0 156.25 139.63
  L 157.20 140.16
  Q 157.61 140.38 157.61 140.85
  Z
  M 274.9714 139.5990
  A 0.65 0.65 0.0 0 0 274.3294 138.9412
  L 274.1894 138.9394
  A 0.65 0.65 0.0 0 0 273.5315 139.5815
  L 273.4486 146.3610
  A 0.65 0.65 0.0 0 0 274.0906 147.0188
  L 274.2306 147.0206
  A 0.65 0.65 0.0 0 0 274.8885 146.3785
  L 274.9714 139.5990
  Z
  M 289.42 145.62
  L 289.32 139.35
  A 0.44 0.44 0.0 0 0 288.84 138.92
  Q 288.65 138.94 288.48 138.96
  Q 287.97 139.00 287.97 139.52
  L 287.95 145.71
  A 0.97 0.95 -74.1 0 0 288.39 146.52
  Q 290.23 147.69 291.90 146.27
  A 1.04 1.02 -20.9 0 0 292.27 145.46
  L 292.22 139.54
  Q 292.21 139.11 291.80 139.01
  Q 291.61 138.96 291.43 138.92
  A 0.39 0.38 7.8 0 0 290.95 139.28
  L 290.74 145.63
  A 0.66 0.66 0.0 0 1 289.42 145.62
  Z
  M 309.0920 139.4588
  A 0.53 0.53 0.0 0 0 308.5685 138.9224
  L 308.2285 138.9182
  A 0.53 0.53 0.0 0 0 307.6921 139.4417
  L 307.6080 146.3212
  A 0.53 0.53 0.0 0 0 308.1315 146.8576
  L 308.4715 146.8618
  A 0.53 0.53 0.0 0 0 309.0079 146.3383
  L 309.0920 139.4588
  Z
  M 317.78 153.63
  L 319.25 154.78
  A 0.61 0.61 0.0 0 0 320.19 154.05
  C 319.23 151.96 316.00 151.62 315.63 153.97
  Q 315.19 156.82 315.85 159.65
  A 1.04 1.03 -89.1 0 0 316.59 160.42
  Q 318.03 160.81 319.47 160.21
  A 2.45 1.82 -54.1 0 0 319.42 155.91
  Q 319.10 155.98 318.87 156.00
  Q 317.84 156.11 318.32 157.02
  Q 318.88 158.08 318.36 159.26
  A 0.71 0.70 -33.1 0 1 317.01 158.98
  L 317.03 153.99
  A 0.46 0.46 0.0 0 1 317.78 153.63
  Z
  M 304.46 154.08
  Q 304.50 156.25 304.40 158.38
  C 304.25 161.64 308.92 161.20 308.88 158.25
  Q 308.85 155.61 308.69 152.96
  Q 308.66 152.48 308.18 152.49
  L 307.87 152.49
  Q 307.25 152.51 307.25 153.13
  L 307.27 158.65
  Q 307.27 159.61 306.35 159.35
  L 306.07 159.27
  Q 305.74 159.18 305.74 158.83
  L 305.76 153.26
  Q 305.77 152.75 305.26 152.72
  L 300.52 152.45
  A 0.54 0.54 0.0 0 0 299.95 152.99
  L 299.92 159.86
  A 0.58 0.58 0.0 0 0 300.41 160.43
  L 300.74 160.48
  Q 301.28 160.56 301.28 160.01
  L 301.30 157.61
  Q 301.30 157.02 301.89 156.99
  L 303.00 156.95
  A 0.40 0.40 0.0 0 0 303.24 156.25
  Q 302.78 155.85 302.11 155.93
  A 1.14 1.14 0.0 0 1 301.53 153.75
  Q 302.61 153.31 303.99 153.53
  Q 304.46 153.61 304.46 154.08
  Z
  M 312.26 157.28
  L 313.07 159.86
  Q 313.19 160.26 313.59 160.41
  L 313.90 160.52
  Q 314.97 160.90 314.58 159.83
  L 313.80 157.70
  A 1.10 1.09 51.3 0 1 313.90 156.77
  Q 314.92 155.15 314.22 153.33
  Q 314.02 152.80 313.45 152.72
  L 310.85 152.39
  Q 310.27 152.32 310.25 152.91
  L 310.11 159.88
  Q 310.10 160.40 310.62 160.41
  L 311.13 160.42
  A 0.52 0.52 0.0 0 0 311.66 159.87
  L 311.53 157.41
  A 0.37 0.37 0.0 0 1 312.26 157.28
  Z"
/>
<path fill="#040507" d="
  M 300.21 138.74
  Q 301.23 142.67 300.54 146.60
  A 0.65 0.65 0.0 0 1 299.25 146.46
  L 299.63 137.59
  A 0.42 0.42 0.0 0 1 300.06 137.18
  L 300.74 137.19
  A 0.34 0.34 0.0 0 1 300.90 137.83
  L 300.51 138.05
  Q 300.09 138.28 300.21 138.74
  Z"
/>
<path fill="#040507" d="
  M 163.78 138.56
  Q 166.34 139.90 165.53 142.99
  A 1.74 1.67 -46.2 0 0 165.53 143.88
  Q 166.12 146.10 164.18 147.00
  A 2.14 2.13 67.9 0 1 161.26 145.76
  Q 159.78 141.50 162.80 138.45
  Q 163.05 138.20 163.07 137.86
  Q 163.08 137.59 163.29 137.41
  Q 163.46 137.26 163.68 137.23
  Q 163.90 137.20 164.09 137.27
  A 0.32 0.31 -39.6 0 1 164.03 137.88
  Q 163.87 137.91 163.73 138.03
  A 0.32 0.32 0.0 0 0 163.78 138.56
  Z
  M 163.3071 146.1899
  A 3.28 0.90 90.4 0 0 164.2300 142.9163
  A 3.28 0.90 90.4 0 0 163.3529 139.6301
  A 3.28 0.90 90.4 0 0 162.4300 142.9037
  A 3.28 0.90 90.4 0 0 163.3071 146.1899
  Z"
/>
<path fill="#040507" d="
  M 134.59 144.16
  L 134.58 144.99
  A 0.62 0.62 0.0 0 0 135.09 145.61
  L 136.99 145.95
  A 0.51 0.51 0.0 0 1 136.89 146.96
  L 133.67 146.91
  A 0.61 0.60 0.9 0 1 133.07 146.30
  L 133.22 139.52
  Q 133.24 138.90 133.85 138.90
  L 136.74 138.89
  A 0.44 0.44 0.0 0 1 136.84 139.76
  L 134.99 140.18
  A 0.56 0.55 85.3 0 0 134.56 140.70
  L 134.52 141.48
  A 0.75 0.75 0.0 0 0 135.40 142.25
  Q 136.03 142.13 136.57 142.46
  Q 137.43 142.99 136.44 143.22
  L 135.10 143.53
  Q 134.60 143.65 134.59 144.16
  Z"
/>
<path fill="#040507" d="
  M 140.93 145.30
  C 140.55 143.10 137.50 142.67 137.97 140.45
  Q 138.36 138.61 140.24 138.80
  Q 141.67 138.94 141.98 140.33
  A 0.46 0.45 9.9 0 1 141.29 140.81
  L 139.97 139.97
  A 0.50 0.50 0.0 0 0 139.23 140.58
  C 139.92 142.33 144.22 144.58 141.45 146.64
  A 0.94 0.90 -68.0 0 1 141.05 146.82
  Q 138.06 147.45 138.07 145.25
  A 0.41 0.40 -72.2 0 1 138.71 144.92
  L 140.02 145.87
  A 0.58 0.58 0.0 0 0 140.93 145.30
  Z"
/>
<path fill="#040507" d="
  M 144.46 140.32
  L 144.50 145.71
  A 0.52 0.51 56.3 0 0 145.49 145.91
  L 146.03 144.63
  A 0.73 0.73 0.0 0 1 147.27 144.45
  Q 147.74 145.04 147.07 146.04
  Q 146.13 147.46 144.17 146.82
  A 1.72 1.72 0.0 0 1 142.98 145.17
  L 143.01 140.63
  A 1.83 1.83 0.0 0 1 144.95 138.82
  Q 147.28 138.96 147.36 141.16
  A 0.48 0.48 0.0 0 1 146.49 141.45
  L 145.49 140.00
  A 0.57 0.56 27.6 0 0 144.46 140.32
  Z"
/>
<path fill="#040507" d="
  M 149.66 144.21
  L 149.59 146.50
  Q 149.57 146.96 149.11 147.00
  Q 148.30 147.07 148.27 146.25
  Q 148.13 142.84 148.29 139.41
  A 0.58 0.58 0.0 0 1 148.95 138.86
  L 151.45 139.18
  Q 152.08 139.26 152.29 139.86
  Q 152.87 141.54 151.99 143.09
  Q 151.71 143.57 151.87 144.11
  L 152.59 146.56
  Q 152.76 147.13 152.18 147.00
  L 151.69 146.88
  Q 151.30 146.79 151.18 146.41
  L 150.48 144.11
  A 0.42 0.42 0.0 0 0 149.66 144.21
  Z
  M 150.2841 142.4483
  A 1.26 0.78 93.0 0 0 151.1289 141.2308
  A 1.26 0.78 93.0 0 0 150.4159 139.9317
  A 1.26 0.78 93.0 0 0 149.5711 141.1492
  A 1.26 0.78 93.0 0 0 150.2841 142.4483
  Z"
/>
<path fill="#040507" d="
  M 168.31 144.29
  L 168.36 146.27
  Q 168.38 146.78 167.87 146.82
  L 167.58 146.85
  Q 167.00 146.90 167.00 146.32
  L 167.01 139.51
  Q 167.01 139.03 167.48 138.92
  C 170.23 138.30 172.41 140.29 170.77 143.05
  Q 170.50 143.51 170.63 144.02
  L 171.25 146.51
  A 0.64 0.64 0.0 0 1 170.03 146.87
  L 169.12 144.14
  A 0.42 0.42 0.0 0 0 168.31 144.29
  Z
  M 169.0527 142.3696
  A 1.25 0.79 88.5 0 0 169.8097 141.0993
  A 1.25 0.79 88.5 0 0 168.9873 139.8704
  A 1.25 0.79 88.5 0 0 168.2303 141.1407
  A 1.25 0.79 88.5 0 0 169.0527 142.3696
  Z"
/>
<rect fill="#040507" x="-0.74" y="-4.00" transform="translate(173.27,142.89) rotate(-0.1)" width="1.48" height="8.00" rx="0.44"/>
<path fill="#040507" d="
  M 179.9196 144.9046
  A 2.21 2.21 0.0 0 1 177.6865 147.0913
  L 177.3866 147.0882
  A 2.21 2.21 0.0 0 1 175.1998 144.8552
  L 175.2404 140.9754
  A 2.21 2.21 0.0 0 1 177.4735 138.7887
  L 177.7734 138.7918
  A 2.21 2.21 0.0 0 1 179.9602 141.0248
  L 179.9196 144.9046
  Z
  M 177.5656 146.1700
  A 3.23 0.88 89.9 0 0 178.4400 142.9385
  A 3.23 0.88 89.9 0 0 177.5544 139.7100
  A 3.23 0.88 89.9 0 0 176.6800 142.9415
  A 3.23 0.88 89.9 0 0 177.5656 146.1700
  Z"
/>
<path fill="#040507" d="
  M 184.92 143.81
  L 184.78 146.45
  A 0.64 0.64 0.0 0 1 184.30 147.04
  Q 184.13 147.08 183.96 147.11
  Q 183.50 147.21 183.50 146.73
  L 183.52 139.47
  A 0.64 0.64 0.0 0 1 184.28 138.84
  L 184.80 138.93
  Q 185.16 139.00 185.30 139.35
  L 186.44 142.38
  A 0.34 0.34 0.0 0 0 187.09 142.29
  L 187.32 139.65
  A 1.04 1.04 0.0 0 1 189.40 139.73
  L 189.41 146.17
  Q 189.41 146.87 188.72 146.83
  Q 187.96 146.80 188.14 145.79
  Q 188.36 144.60 187.83 143.63
  A 0.28 0.28 0.0 0 0 187.31 143.73
  L 187.14 145.44
  A 0.48 0.48 0.0 0 1 186.21 145.56
  L 185.55 143.72
  A 0.33 0.32 36.7 0 0 184.92 143.81
  Z"
/>
<path fill="#040507" d="
  M 195.2565 144.9739
  A 2.11 2.11 0.0 0 1 193.1428 147.0803
  L 192.8428 147.0797
  A 2.11 2.11 0.0 0 1 190.7365 144.9661
  L 190.7435 140.9261
  A 2.11 2.11 0.0 0 1 192.8572 138.8197
  L 193.1572 138.8203
  A 2.11 2.11 0.0 0 1 195.2635 140.9339
  L 195.2565 144.9739
  Z
  M 193.0685 146.2700
  A 3.30 0.92 90.2 0 0 194.0000 142.9732
  A 3.30 0.92 90.2 0 0 193.0915 139.6700
  A 3.30 0.92 90.2 0 0 192.1600 142.9668
  A 3.30 0.92 90.2 0 0 193.0685 146.2700
  Z"
/>
<path fill="#040507" d="
  M 200.9363 145.6388
  A 1.26 1.26 0.0 0 1 199.6653 146.8878
  L 197.8454 146.8719
  A 1.26 1.26 0.0 0 1 196.5964 145.6010
  L 196.6437 140.1812
  A 1.26 1.26 0.0 0 1 197.9147 138.9322
  L 199.7346 138.9481
  A 1.26 1.26 0.0 0 1 200.9836 140.2190
  L 200.9363 145.6388
  Z
  M 199.6355 140.6353
  A 0.72 0.72 0.0 0 0 198.9205 139.9103
  L 198.8605 139.9099
  A 0.72 0.72 0.0 0 0 198.1355 140.6248
  L 198.1045 145.0647
  A 0.72 0.72 0.0 0 0 198.8195 145.7897
  L 198.8795 145.7901
  A 0.72 0.72 0.0 0 0 199.6045 145.0752
  L 199.6355 140.6353
  Z"
/>
<path fill="#040507" d="
  M 204.15 145.71
  L 205.94 145.79
  A 0.52 0.51 45.2 0 1 205.94 146.82
  L 202.72 146.92
  Q 202.13 146.94 202.14 146.35
  L 202.27 139.47
  Q 202.28 138.96 202.78 138.95
  L 205.75 138.89
  A 0.40 0.39 -69.7 0 1 206.05 139.55
  Q 205.40 140.29 204.33 139.91
  Q 203.72 139.69 203.65 140.34
  L 203.54 141.45
  A 0.58 0.57 -80.2 0 0 203.97 142.07
  L 205.35 142.42
  A 0.47 0.46 -42.6 0 1 205.31 143.33
  L 204.32 143.50
  Q 203.74 143.60 203.63 144.18
  L 203.50 144.89
  Q 203.36 145.67 204.15 145.71
  Z"
/>
<path fill="#040507" d="
  M 209.26 145.60
  L 211.04 146.09
  A 0.35 0.35 0.0 0 1 210.96 146.78
  L 208.00 146.93
  A 0.68 0.68 0.0 0 1 207.29 146.25
  L 207.33 139.48
  A 0.65 0.64 -3.5 0 1 207.90 138.84
  Q 208.80 138.73 208.79 139.50
  Q 208.72 142.22 208.77 144.96
  A 0.68 0.66 -83.2 0 0 209.26 145.60
  Z"
/>
<path fill="#040507" d="
  M 216.2326 145.0378
  A 1.97 1.97 0.0 0 1 214.2557 147.0010
  L 213.6957 146.9990
  A 1.97 1.97 0.0 0 1 211.7326 145.0221
  L 211.7474 140.7822
  A 1.97 1.97 0.0 0 1 213.7243 138.8190
  L 214.2843 138.8210
  A 1.97 1.97 0.0 0 1 216.2474 140.7979
  L 216.2326 145.0378
  Z
  M 214.0244 146.1600
  A 3.19 0.91 90.1 0 0 214.9400 142.9716
  A 3.19 0.91 90.1 0 0 214.0356 139.7800
  A 3.19 0.91 90.1 0 0 213.1200 142.9684
  A 3.19 0.91 90.1 0 0 214.0244 146.1600
  Z"
/>
<path fill="#040507" d="
  M 224.1489 145.6685
  A 1.35 1.35 0.0 0 1 222.7686 146.9876
  L 221.1290 146.9504
  A 1.35 1.35 0.0 0 1 219.8100 145.5701
  L 219.9311 140.2315
  A 1.35 1.35 0.0 0 1 221.3114 138.9124
  L 222.9510 138.9496
  A 1.35 1.35 0.0 0 1 224.2700 140.3299
  L 224.1489 145.6685
  Z
  M 222.0180 146.0499
  A 3.15 0.88 90.4 0 0 222.9200 142.9061
  A 3.15 0.88 90.4 0 0 222.0620 139.7501
  A 3.15 0.88 90.4 0 0 221.1600 142.8939
  A 3.15 0.88 90.4 0 0 222.0180 146.0499
  Z"
/>
<path fill="#040507" d="
  M 227.10 140.95
  L 227.07 141.74
  A 0.56 0.56 0.0 0 0 227.90 142.25
  Q 228.69 141.83 229.20 142.59
  A 0.46 0.45 67.8 0 1 228.91 143.29
  L 227.65 143.54
  Q 227.18 143.63 227.15 144.11
  L 227.08 145.16
  A 0.57 0.57 0.0 0 0 227.67 145.77
  L 229.50 145.73
  A 0.59 0.59 0.0 0 1 229.56 146.90
  Q 227.96 147.01 226.35 146.89
  Q 225.72 146.84 225.72 146.20
  L 225.77 139.61
  Q 225.77 139.00 226.39 138.99
  L 229.68 138.91
  A 0.45 0.45 0.0 0 1 229.77 139.80
  L 227.82 140.11
  Q 227.11 140.23 227.10 140.95
  Z"
/>
<path fill="#040507" d="
  M 237.39 146.54
  Q 237.14 146.91 236.61 146.78
  Q 236.11 146.67 236.02 146.16
  Q 235.86 145.22 235.00 144.97
  Q 234.37 144.79 234.37 145.45
  Q 234.37 146.39 233.67 146.90
  A 0.60 0.60 0.0 0 1 232.74 146.29
  L 234.22 139.47
  A 0.82 0.80 7.1 0 1 235.05 138.84
  Q 236.11 138.90 236.29 139.99
  Q 236.76 142.82 237.29 145.64
  A 0.26 0.25 43.4 0 0 237.79 145.63
  Q 237.81 145.46 237.85 145.32
  Q 238.00 144.79 238.51 145.01
  L 240.21 145.78
  A 0.70 0.70 0.0 0 0 240.98 144.63
  L 238.37 142.14
  A 1.95 1.95 0.0 0 1 238.75 139.04
  Q 240.11 138.26 241.47 139.25
  Q 242.23 139.80 242.07 140.58
  Q 241.95 141.18 241.44 140.84
  L 240.51 140.22
  A 0.75 0.74 84.4 0 0 239.57 141.37
  L 241.98 143.78
  A 1.89 1.89 0.0 0 1 240.88 146.99
  Q 239.27 147.19 238.05 146.41
  Q 237.65 146.15 237.39 146.54
  Z
  M 234.79 142.90
  Q 234.59 143.28 234.66 143.62
  A 0.53 0.52 -52.0 0 0 235.70 143.49
  Q 235.67 142.87 235.45 142.27
  Q 235.33 141.93 235.11 142.21
  Q 235.03 142.32 234.98 142.45
  Q 234.83 142.84 234.79 142.90
  Z"
/>
<path fill="#040507" d="
  M 245.11 140.21
  A 0.58 0.58 0.0 0 0 244.24 140.70
  L 244.23 140.96
  A 1.04 1.04 0.0 0 0 244.80 141.92
  Q 247.23 143.19 246.93 145.89
  A 1.02 1.02 0.0 0 1 246.28 146.73
  C 245.23 147.12 242.91 147.14 242.68 145.69
  Q 242.61 145.28 242.83 144.89
  A 0.51 0.50 -53.5 0 1 243.62 144.77
  Q 244.05 145.18 244.49 145.60
  A 0.80 0.79 -0.7 0 0 245.60 144.47
  Q 244.41 143.30 243.18 142.19
  A 1.14 1.13 -65.5 0 1 242.81 141.19
  L 242.91 140.34
  Q 243.11 138.74 244.72 138.77
  Q 246.15 138.81 246.83 140.05
  A 0.54 0.54 0.0 0 1 246.09 140.77
  L 245.11 140.21
  Z"
/>
<path fill="#040507" d="
  M 256.64 146.21
  Q 255.13 147.45 253.44 146.72
  Q 253.04 146.56 252.62 146.60
  L 248.70 147.02
  A 0.63 0.62 -2.5 0 1 248.01 146.39
  L 248.02 139.73
  Q 248.02 139.12 248.62 138.98
  Q 250.60 138.55 252.39 139.46
  Q 252.82 139.67 253.17 139.34
  C 254.38 138.19 256.15 139.02 256.67 140.32
  A 0.40 0.40 0.0 0 1 256.14 140.84
  L 254.53 140.16
  A 0.50 0.50 0.0 0 0 253.92 140.91
  Q 255.98 143.95 259.14 145.76
  A 0.82 0.82 0.0 0 0 260.11 144.46
  L 257.49 141.97
  A 1.81 1.81 0.0 0 1 258.26 138.91
  Q 260.41 138.32 261.29 139.92
  A 0.53 0.53 0.0 0 1 260.62 140.67
  L 259.25 140.11
  A 0.55 0.54 77.9 0 0 258.67 141.01
  Q 259.45 141.74 261.06 143.45
  C 263.10 145.61 260.16 148.37 257.50 146.21
  Q 257.07 145.85 256.64 146.21
  Z
  M 251.20 143.16
  Q 250.77 143.43 250.22 143.34
  A 1.34 1.10 52.3 0 0 250.15 145.79
  Q 251.54 146.20 252.78 145.04
  Q 253.16 144.68 253.54 145.03
  L 254.38 145.78
  A 0.56 0.55 -59.7 0 0 255.28 145.54
  L 255.43 145.08
  A 0.81 0.80 -65.3 0 0 255.09 144.15
  Q 252.98 142.85 252.28 140.54
  Q 252.08 139.87 251.39 139.90
  L 250.12 139.96
  A 1.13 1.12 -46.6 0 0 250.18 142.21
  Q 250.74 142.21 251.18 142.45
  Q 251.80 142.78 251.20 143.16
  Z"
/>
<path fill="#040507" d="
  M 266.5411 145.0183
  A 1.97 1.97 0.0 0 1 264.5815 146.9986
  L 264.0615 147.0013
  A 1.97 1.97 0.0 0 1 262.0812 145.0416
  L 262.0589 140.7817
  A 1.97 1.97 0.0 0 1 264.0185 138.8014
  L 264.5385 138.7987
  A 1.97 1.97 0.0 0 1 266.5188 140.7584
  L 266.5411 145.0183
  Z
  M 264.2342 146.1997
  A 3.28 0.90 90.8 0 0 265.1799 142.9326
  A 3.28 0.90 90.8 0 0 264.3258 139.6403
  A 3.28 0.90 90.8 0 0 263.3801 142.9074
  A 3.28 0.90 90.8 0 0 264.2342 146.1997
  Z"
/>
<path fill="#040507" d="
  M 269.45 144.05
  L 269.42 146.31
  Q 269.41 146.79 268.94 146.83
  L 268.46 146.87
  A 0.55 0.54 -2.4 0 1 267.86 146.32
  L 268.00 139.69
  Q 268.01 139.08 268.59 138.91
  C 271.49 138.03 273.23 140.78 271.59 143.21
  A 0.97 0.96 -37.0 0 0 271.47 144.02
  L 272.24 146.45
  Q 272.43 147.06 271.79 146.99
  L 271.34 146.94
  Q 270.99 146.90 270.89 146.57
  L 270.08 143.96
  A 0.32 0.32 0.0 0 0 269.45 144.05
  Z
  M 269.49 142.32
  Q 269.52 142.86 269.96 142.55
  Q 271.55 141.45 270.36 140.01
  A 0.55 0.55 0.0 0 0 269.38 140.39
  L 269.49 142.32
  Z"
/>
<path fill="#040507" d="
  M 277.72 145.26
  L 277.34 146.70
  A 0.32 0.32 0.0 0 1 277.03 146.94
  L 276.60 146.95
  Q 275.95 146.96 276.07 146.32
  L 277.38 139.23
  A 0.99 0.99 0.0 0 1 279.33 139.22
  L 280.79 146.47
  Q 280.92 147.14 280.25 147.04
  L 279.95 147.00
  Q 279.66 146.96 279.54 146.69
  L 278.85 145.16
  A 0.60 0.60 0.0 0 0 277.72 145.26
  Z
  M 278.88 143.63
  Q 278.92 142.81 278.76 142.02
  Q 278.60 141.26 278.33 141.99
  Q 277.99 142.94 278.04 143.91
  A 0.51 0.37 -54.0 0 0 278.88 143.63
  Z"
/>
<path fill="#040507" d="
  M 285.03 139.84
  A 0.67 0.65 62.3 0 1 285.22 139.20
  Q 285.85 138.62 286.26 138.97
  Q 286.49 139.15 286.50 139.61
  Q 286.60 142.80 286.50 146.00
  A 0.82 0.79 -9.4 0 1 285.97 146.72
  L 284.58 147.23
  Q 283.58 147.60 284.11 146.68
  Q 285.95 143.52 285.03 139.84
  Z"
/>
<path fill="#040507" d="
  M 295.33 144.02
  Q 295.06 144.98 295.10 145.96
  A 0.66 0.59 60.2 0 1 295.03 146.29
  Q 294.65 147.03 294.09 146.84
  A 0.61 0.59 -81.2 0 1 293.67 146.25
  L 293.76 140.44
  A 1.74 1.74 0.0 0 1 296.13 138.84
  Q 299.35 140.08 297.34 143.20
  Q 297.10 143.57 297.24 143.99
  L 298.00 146.14
  Q 298.21 146.71 297.63 146.91
  Q 297.18 147.07 296.85 146.78
  Q 296.65 146.60 296.59 146.19
  Q 296.44 145.01 295.92 143.96
  Q 295.55 143.21 295.33 144.02
  Z
  M 295.8411 142.4398
  A 1.21 0.83 89.0 0 0 296.6499 141.2155
  A 1.21 0.83 89.0 0 0 295.7989 140.0202
  A 1.21 0.83 89.0 0 0 294.9901 141.2445
  A 1.21 0.83 89.0 0 0 295.8411 142.4398
  Z"
/>
<path fill="#040507" d="
  M 306.1580 145.4753
  A 1.44 1.44 0.0 0 1 304.7281 146.9253
  L 303.4082 146.9345
  A 1.44 1.44 0.0 0 1 301.9581 145.5046
  L 301.9220 140.3247
  A 1.44 1.44 0.0 0 1 303.3519 138.8747
  L 304.6718 138.8655
  A 1.44 1.44 0.0 0 1 306.1219 140.2954
  L 306.1580 145.4753
  Z
  M 304.0233 145.9900
  A 3.18 0.83 90.3 0 0 304.8700 142.8143
  A 3.18 0.83 90.3 0 0 304.0567 139.6300
  A 3.18 0.83 90.3 0 0 303.2100 142.8057
  A 3.18 0.83 90.3 0 0 304.0233 145.9900
  Z"
/>
<path fill="#040507" d="
  M 313.05 145.77
  L 313.53 144.35
  A 0.64 0.64 0.0 0 1 314.78 144.51
  Q 314.92 146.58 313.06 147.01
  A 2.11 2.10 81.7 0 1 310.50 145.09
  Q 310.38 143.34 310.33 141.02
  C 310.28 138.77 313.00 137.98 314.31 139.64
  Q 315.03 140.55 314.63 141.27
  A 0.50 0.49 42.6 0 1 313.78 141.30
  L 312.88 139.93
  A 0.52 0.51 28.4 0 0 311.93 140.21
  L 311.98 145.60
  A 0.55 0.55 0.0 0 0 313.05 145.77
  Z"
/>
<path fill="#040507" d="
  M 318.49 145.50
  A 0.81 0.81 0.0 0 0 316.91 145.69
  Q 316.85 146.69 315.92 146.81
  Q 315.38 146.89 315.48 146.35
  L 316.73 139.65
  A 1.07 1.07 0.0 0 1 318.84 139.64
  L 320.13 146.18
  A 0.69 0.69 0.0 0 1 318.79 146.51
  L 318.49 145.50
  Z
  M 318.12 142.03
  L 318.12 141.33
  Q 318.12 140.34 317.75 141.26
  Q 317.30 142.36 317.14 143.38
  A 0.59 0.59 0.0 0 0 318.28 143.67
  Q 318.39 143.38 318.26 142.98
  Q 318.12 142.51 318.12 142.03
  Z"
/>
<rect fill="#040507" x="-0.73" y="-3.94" transform="translate(154.46,142.97) rotate(-0.6)" width="1.46" height="7.88" rx="0.62"/>
<path fill="#040507" d="
  M 157.20 140.16
  L 156.25 139.63
  A 0.37 0.37 0.0 0 1 156.44 138.93
  L 160.15 139.00
  A 0.38 0.38 0.0 0 1 160.28 139.74
  L 159.51 140.04
  A 0.75 0.74 -10.1 0 0 159.02 140.74
  L 159.00 146.22
  Q 159.00 146.94 158.28 146.84
  L 158.02 146.80
  Q 157.54 146.73 157.55 146.26
  L 157.61 140.85
  Q 157.61 140.38 157.20 140.16
  Z"
/>
<rect fill="#040507" x="-0.72" y="-4.04" transform="translate(274.21,142.98) rotate(0.7)" width="1.44" height="8.08" rx="0.65"/>
<path fill="#040507" d="
  M 289.42 145.62
  A 0.66 0.66 0.0 0 0 290.74 145.63
  L 290.95 139.28
  A 0.39 0.38 7.8 0 1 291.43 138.92
  Q 291.61 138.96 291.80 139.01
  Q 292.21 139.11 292.22 139.54
  L 292.27 145.46
  A 1.04 1.02 -20.9 0 1 291.90 146.27
  Q 290.23 147.69 288.39 146.52
  A 0.97 0.95 -74.1 0 1 287.95 145.71
  L 287.97 139.52
  Q 287.97 139.00 288.48 138.96
  Q 288.65 138.94 288.84 138.92
  A 0.44 0.44 0.0 0 1 289.32 139.35
  L 289.42 145.62
  Z"
/>
<rect fill="#040507" x="-0.70" y="-3.97" transform="translate(308.35,142.89) rotate(0.7)" width="1.40" height="7.94" rx="0.53"/>
<ellipse fill="#fdaf17" cx="0.00" cy="0.00" transform="translate(163.33,142.91) rotate(90.4)" rx="3.28" ry="0.90"/>
<ellipse fill="#fdaf17" cx="0.00" cy="0.00" transform="translate(169.02,141.12) rotate(88.5)" rx="1.25" ry="0.79"/>
<ellipse fill="#fdaf17" cx="0.00" cy="0.00" transform="translate(193.08,142.97) rotate(90.2)" rx="3.30" ry="0.92"/>
<rect fill="#fdaf17" x="-0.75" y="-2.94" transform="translate(198.87,142.85) rotate(0.4)" width="1.50" height="5.88" rx="0.72"/>
<ellipse fill="#fdaf17" cx="0.00" cy="0.00" transform="translate(214.03,142.97) rotate(90.1)" rx="3.19" ry="0.91"/>
<ellipse fill="#fdaf17" cx="0.00" cy="0.00" transform="translate(222.04,142.90) rotate(90.4)" rx="3.15" ry="0.88"/>
<path fill="#fdaf17" d="
  M 251.18 142.45
  Q 250.74 142.21 250.18 142.21
  A 1.13 1.12 -46.6 0 1 250.12 139.96
  L 251.39 139.90
  Q 252.08 139.87 252.28 140.54
  Q 252.98 142.85 255.09 144.15
  A 0.81 0.80 -65.3 0 1 255.43 145.08
  L 255.28 145.54
  A 0.56 0.55 -59.7 0 1 254.38 145.78
  L 253.54 145.03
  Q 253.16 144.68 252.78 145.04
  Q 251.54 146.20 250.15 145.79
  A 1.34 1.10 52.3 0 1 250.22 143.34
  Q 250.77 143.43 251.20 143.16
  Q 251.80 142.78 251.18 142.45
  Z"
/>
<ellipse fill="#fdaf17" cx="0.00" cy="0.00" transform="translate(264.28,142.92) rotate(90.8)" rx="3.28" ry="0.90"/>
<path fill="#fdaf17" d="
  M 269.49 142.32
  L 269.38 140.39
  A 0.55 0.55 0.0 0 1 270.36 140.01
  Q 271.55 141.45 269.96 142.55
  Q 269.52 142.86 269.49 142.32
  Z"
/>
<ellipse fill="#fdaf17" cx="0.00" cy="0.00" transform="translate(304.04,142.81) rotate(90.3)" rx="3.18" ry="0.83"/>
<path fill="#fdaf17" d="
  M 80.78 139.92
  L 84.20 143.53
  Q 68.44 147.54 51.99 149.91
  Q 30.87 152.95 9.79 149.16
  L 9.66 140.18
  Q 20.24 142.73 23.50 143.24
  C 42.68 146.20 62.46 143.16 80.78 139.92
  Z"
/>
<ellipse fill="#fdaf17" cx="0.00" cy="0.00" transform="translate(150.35,141.19) rotate(93.0)" rx="1.26" ry="0.78"/>
<ellipse fill="#fdaf17" cx="0.00" cy="0.00" transform="translate(177.56,142.94) rotate(89.9)" rx="3.23" ry="0.88"/>
<ellipse fill="#fdaf17" cx="0.00" cy="0.00" transform="translate(295.82,141.23) rotate(89.0)" rx="1.21" ry="0.83"/>
<path fill="#df7e27" d="
  M 318.26 142.98
  Q 318.39 143.38 318.28 143.67
  A 0.59 0.59 0.0 0 1 317.14 143.38
  Q 317.30 142.36 317.75 141.26
  Q 318.12 140.34 318.12 141.33
  L 318.12 142.03
  Q 318.12 142.51 318.26 142.98
  Z"
/>
<path fill="#fdaf17" d="
  M 278.88 143.63
  A 0.51 0.37 -54.0 0 1 278.04 143.91
  Q 277.99 142.94 278.33 141.99
  Q 278.60 141.26 278.76 142.02
  Q 278.92 142.81 278.88 143.63
  Z"
/>
<path fill="#fdaf17" d="
  M 234.98 142.45
  Q 235.03 142.32 235.11 142.21
  Q 235.33 141.93 235.45 142.27
  Q 235.67 142.87 235.70 143.49
  A 0.53 0.52 -52.0 0 1 234.66 143.62
  Q 234.59 143.28 234.79 142.90
  Q 234.83 142.84 234.98 142.45
  Z"
/>
<path fill="#ffffff" d="
  M 84.20 143.53
  L 89.88 149.54
  Q 90.10 149.77 90.11 150.07
  Q 90.13 150.30 90.22 150.39
  L 84.03 152.28
  L 77.79 154.08
  Q 63.75 158.20 51.24 160.28
  Q 30.90 163.67 9.84 160.49
  L 9.79 149.16
  Q 30.87 152.95 51.99 149.91
  Q 68.44 147.54 84.20 143.53
  Z"
/>
<path fill="#fdaf17" d="
  M 90.22 150.39
  C 90.94 150.90 91.55 151.02 92.21 151.58
  Q 102.59 160.33 115.31 164.97
  L 10.35 165.00
  Q 9.34 164.30 9.84 160.49
  Q 30.90 163.67 51.24 160.28
  Q 63.75 158.20 77.79 154.08
  Q 80.98 153.92 84.03 152.28
  L 90.22 150.39
  Z"
/>
<path fill="#fec35f" d="
  M 84.03 152.28
  Q 80.98 153.92 77.79 154.08
  L 84.03 152.28
  Z"
/>
<path fill="#040507" d="
  M 317.03 153.99
  L 317.01 158.98
  A 0.71 0.70 -33.1 0 0 318.36 159.26
  Q 318.88 158.08 318.32 157.02
  Q 317.84 156.11 318.87 156.00
  Q 319.10 155.98 319.42 155.91
  A 2.45 1.82 -54.1 0 1 319.47 160.21
  Q 318.03 160.81 316.59 160.42
  A 1.04 1.03 -89.1 0 1 315.85 159.65
  Q 315.19 156.82 315.63 153.97
  C 316.00 151.62 319.23 151.96 320.19 154.05
  A 0.61 0.61 0.0 0 1 319.25 154.78
  L 317.78 153.63
  A 0.46 0.46 0.0 0 0 317.03 153.99
  Z"
/>
<path fill="#040507" d="
  M 303.99 153.53
  Q 302.61 153.31 301.53 153.75
  A 1.14 1.14 0.0 0 0 302.11 155.93
  Q 302.78 155.85 303.24 156.25
  A 0.40 0.40 0.0 0 1 303.00 156.95
  L 301.89 156.99
  Q 301.30 157.02 301.30 157.61
  L 301.28 160.01
  Q 301.28 160.56 300.74 160.48
  L 300.41 160.43
  A 0.58 0.58 0.0 0 1 299.92 159.86
  L 299.95 152.99
  A 0.54 0.54 0.0 0 1 300.52 152.45
  L 305.26 152.72
  Q 305.77 152.75 305.76 153.26
  L 305.74 158.83
  Q 305.74 159.18 306.07 159.27
  L 306.35 159.35
  Q 307.27 159.61 307.27 158.65
  L 307.25 153.13
  Q 307.25 152.51 307.87 152.49
  L 308.18 152.49
  Q 308.66 152.48 308.69 152.96
  Q 308.85 155.61 308.88 158.25
  C 308.92 161.20 304.25 161.64 304.40 158.38
  Q 304.50 156.25 304.46 154.08
  Q 304.46 153.61 303.99 153.53
  Z"
/>
<path fill="#040507" d="
  M 311.53 157.41
  L 311.66 159.87
  A 0.52 0.52 0.0 0 1 311.13 160.42
  L 310.62 160.41
  Q 310.10 160.40 310.11 159.88
  L 310.25 152.91
  Q 310.27 152.32 310.85 152.39
  L 313.45 152.72
  Q 314.02 152.80 314.22 153.33
  Q 314.92 155.15 313.90 156.77
  A 1.10 1.09 51.3 0 0 313.80 157.70
  L 314.58 159.83
  Q 314.97 160.90 313.90 160.52
  L 313.59 160.41
  Q 313.19 160.26 313.07 159.86
  L 312.26 157.28
  A 0.37 0.37 0.0 0 0 311.53 157.41
  Z
  M 312.1898 155.9872
  A 1.15 0.80 94.0 0 0 313.0681 154.8958
  A 1.15 0.80 94.0 0 0 312.3502 153.6928
  A 1.15 0.80 94.0 0 0 311.4719 154.7842
  A 1.15 0.80 94.0 0 0 312.1898 155.9872
  Z"
/>
<ellipse fill="#fdaf17" cx="0.00" cy="0.00" transform="translate(312.27,154.84) rotate(94.0)" rx="1.15" ry="0.80"/>
<path fill="#010100" fill-opacity="0.235" d="
  M 10.35 165.00
  L 115.31 164.97
  L 118.54 164.98
  L 324.53 165.00
  L 324.84 165.91
  A 0.65 0.64 68.5 0 1 324.51 166.69
  Q 319.54 169.11 314.50 169.11
  Q 164.00 169.11 13.50 169.10
  Q 11.36 169.10 10.35 165.00
  Z"
/>
</svg>
